<svg xmlns="http://www.w3.org/2000/svg" width="40.5" height="113" viewBox="0 0 40.5 113">
  <defs>
    <style>
      .cls-1 {
        fill: none;
        stroke: #29aaff;
        stroke-miterlimit: 10;
      }

      .cls-2 {
        fill: #29aaff;
      }

      .cls-3 {
        fill: #fff;
      }
    </style>
  </defs>
  <g id="Grupo_2178" data-name="Grupo 2178" transform="translate(741 2462.5)">
    <path id="Trazado_1098" data-name="Trazado 1098" class="cls-1" d="M1769,1962h40v112h-40" transform="translate(-2510 -4424)"/>
    <path id="Trazado_1099" data-name="Trazado 1099" class="cls-2" d="M1769,1979.073h40v64h-40" transform="translate(-2510 -4417.073)"/>
    <g id="Grupo_2143" data-name="Grupo 2143" transform="translate(-2510.499 -4417.781)">
      <g id="Grupo_2142" data-name="Grupo 2142" transform="translate(1781.499 1993.781)">
        <path id="Trazado_1100" data-name="Trazado 1100" class="cls-3" d="M1794.764,1994.4l-10.01,4.245a4.919,4.919,0,0,0-3.032,4.825,5.389,5.389,0,0,0,.645,2.371,5.312,5.312,0,0,0,1.1,1.4,5.559,5.559,0,0,0,1.658,1.037l7.693,3.113h0c2.253.913,3.834,2.51,3.95,3.853.011-.177.013-.356.007-.539a5.359,5.359,0,0,0-3.4-4.8l-7.693-3.113a3.8,3.8,0,0,1-1.24-.8,3.691,3.691,0,0,1-.885-1.381,3.805,3.805,0,0,1-.225-1.139,3.41,3.41,0,0,1,2.1-3.336l9.758-4.139a4.633,4.633,0,0,1-2.794,4.724l-.628.267-6.785,2.878a1.657,1.657,0,0,0,2.134.865l5.953-2.524a6.1,6.1,0,0,0,3.2-3.126,6.2,6.2,0,0,0,.281-.746,6.442,6.442,0,0,0-.316-4.548Z" transform="translate(-1781.502 -1993.781)"/>
        <path id="Trazado_1101" data-name="Trazado 1101" class="cls-3" d="M1783.552,2029.337l10.009-4.245a4.92,4.92,0,0,0,3.033-4.825,5.336,5.336,0,0,0-1.742-3.767,5.548,5.548,0,0,0-1.659-1.037l-7.693-3.113h0c-2.254-.913-3.834-2.51-3.951-3.853-.01.177-.013.356-.006.538a5.358,5.358,0,0,0,3.4,4.8l7.692,3.113a3.788,3.788,0,0,1,1.24.8,3.679,3.679,0,0,1,.886,1.381,3.807,3.807,0,0,1,.224,1.139,3.408,3.408,0,0,1-2.1,3.336l-9.758,4.139a4.634,4.634,0,0,1,2.793-4.724l.629-.267,6.786-2.878a1.658,1.658,0,0,0-2.135-.864l-5.952,2.524a6.1,6.1,0,0,0-3.2,3.126,6.2,6.2,0,0,0-.28.746,6.441,6.441,0,0,0,.315,4.548Z" transform="translate(-1781.499 -1993.958)"/>
      </g>
    </g>
  </g>
</svg>
