<svg xmlns="http://www.w3.org/2000/svg" width="148.181" height="348.391" viewBox="0 0 148.181 348.391">
  <defs>
    <style>
      .cls-1 {
        fill: #076aaa;
      }

      .cls-2 {
        fill: #309bcc;
      }
    </style>
  </defs>
  <g id="favicon" transform="translate(-991 -1735.082)">
    <path id="Trazado_13" data-name="Trazado 13" class="cls-1" d="M3001.33,219.1l-96.854,41.082a47.6,47.6,0,0,0-29.35,46.685,52.088,52.088,0,0,0,6.251,22.949,51.233,51.233,0,0,0,10.6,13.505,53.777,53.777,0,0,0,16.047,10.042l74.442,30.132h.029c21.8,8.835,37.1,24.285,38.223,37.287.1-1.712.128-3.443.064-5.206a51.847,51.847,0,0,0-32.908-46.48l-74.432-30.132a36.628,36.628,0,0,1-12-7.754,35.562,35.562,0,0,1-8.571-13.361,36.743,36.743,0,0,1-2.18-11.027,32.98,32.98,0,0,1,20.291-32.276l94.428-40.053a44.844,44.844,0,0,1-27.032,45.711l-6.09,2.564-65.662,27.85a16.027,16.027,0,0,0,20.659,8.36l57.594-24.43a59.444,59.444,0,0,0,33.658-37.466,62.332,62.332,0,0,0-3.055-44Z" transform="translate(-1882 1522)"/>
    <path id="Trazado_14" data-name="Trazado 14" class="cls-2" d="M2892.86,555.443l96.855-41.069a47.6,47.6,0,0,0,29.349-46.686,52.094,52.094,0,0,0-6.25-22.948,51.219,51.219,0,0,0-10.6-13.505,53.768,53.768,0,0,0-16.048-10.043l-74.445-30.132h-.026c-21.8-8.834-37.1-24.285-38.223-37.286-.1,1.712-.128,3.443-.064,5.206a51.85,51.85,0,0,0,32.908,46.48l74.432,30.131a36.648,36.648,0,0,1,12,7.755,35.565,35.565,0,0,1,8.571,13.36,36.734,36.734,0,0,1,2.177,11.027,32.983,32.983,0,0,1-20.3,32.277l-94.428,40.053a44.844,44.844,0,0,1,27.032-45.711l6.09-2.564,65.659-27.85a16.028,16.028,0,0,0-20.66-8.36l-57.59,24.429a59.417,59.417,0,0,0-33.658,37.466,62.323,62.323,0,0,0,3.055,44Z" transform="translate(-1882 1522)"/>
  </g>
</svg>
