<svg xmlns="http://www.w3.org/2000/svg" width="73.944" height="73.945" viewBox="0 0 73.944 73.945">
  <g id="icon-generadora-generadores" transform="translate(-5335.361 1388.854)">
    <path id="Trazado_457" data-name="Trazado 457" d="M12731.334,806.118a36,36,0,1,0,36-36A36,36,0,0,0,12731.334,806.118Z" transform="translate(-7395 -2158)" fill="none" stroke="#fff" stroke-miterlimit="10" stroke-width="1.945"/>
    <path id="Trazado_458" data-name="Trazado 458" d="M12752.028,821.6a.51.51,0,0,0-.717-.084l-1.6,1.265a.511.511,0,0,0-.084.715l6.711,8.489a.511.511,0,0,0,.717.083l1.6-1.265a.509.509,0,0,0,.085-.715Zm32.882-4.41h0a2.553,2.553,0,0,0-3.577-.426l-7.216,5.653a2.042,2.042,0,0,1-1.256.434l-5.169,0a1.274,1.274,0,1,1,0-2.549l4.332,0a2.549,2.549,0,1,0-.006-5.1l-9.918.01h-.672a6.132,6.132,0,0,0-3.774,1.307l-3.538,2.779a.51.51,0,0,0-.086.717l6.876,8.7a.5.5,0,0,0,.395.193l8.317.07,2.3.019a6.113,6.113,0,0,0,3.844-1.319l8.732-6.9a2.553,2.553,0,0,0,.419-3.586" transform="translate(-7396.356 -2161.363)" fill="#fff"/>
    <path id="Trazado_459" data-name="Trazado 459" d="M12771.27,793.3a8.356,8.356,0,0,0-6.872,6.838,7.814,7.814,0,0,0,2.153,6.4,5.018,5.018,0,0,1,1.408,3.5,1.207,1.207,0,0,0,1.207,1.207h6.032a1.206,1.206,0,0,0,1.205-1.207,4.949,4.949,0,0,1,1.383-3.467,7.837,7.837,0,0,0-6.517-13.267m4.649,8.966-5.3,4.839a.363.363,0,0,1-.59-.384l1.127-3.387a.362.362,0,0,0-.345-.478h-2.12a.364.364,0,0,1-.245-.633l5.3-4.839a.363.363,0,0,1,.589.384l-1.129,3.387a.365.365,0,0,0,.347.478h2.119a.364.364,0,0,1,.246.633" transform="translate(-7397.462 -2159.726)" fill="#fff"/>
    <path id="Trazado_460" data-name="Trazado 460" d="M12787.338,801.289h-4.131c.017.239.036.477.036.72s-.009.486-.024.719h4.119a.719.719,0,1,0,0-1.439" transform="translate(-7398.87 -2160.325)" fill="#fff"/>
    <path id="Trazado_461" data-name="Trazado 461" d="M12761.168,801.289h-4.132a.719.719,0,0,0,0,1.439h4.12c-.015-.233-.024-.473-.024-.719s.019-.481.036-.72" transform="translate(-7396.864 -2160.325)" fill="#fff"/>
    <path id="Trazado_462" data-name="Trazado 462" d="M12780.5,794.629l2.924-2.923a.719.719,0,0,0-1.018-1.017l-2.924,2.922a10.082,10.082,0,0,1,1.018,1.018" transform="translate(-7398.592 -2159.519)" fill="#fff"/>
    <path id="Trazado_463" data-name="Trazado 463" d="M12773.044,790.852V786.72a.72.72,0,0,0-1.44,0v4.132c.24-.017.479-.037.722-.037s.48.019.719.037" transform="translate(-7398.004 -2159.185)" fill="#fff"/>
    <path id="Trazado_464" data-name="Trazado 464" d="M12764.945,793.612l-2.922-2.923a.72.72,0,0,0-1.018,1.018l2.921,2.923a10.306,10.306,0,0,1,1.019-1.018" transform="translate(-7397.198 -2159.519)" fill="#fff"/>
  </g>
</svg>
