<svg xmlns="http://www.w3.org/2000/svg" width="54.584" height="54.585" viewBox="0 0 54.584 54.585">
  <g id="icon-email" transform="translate(-6314 -3190)">
    <path id="Trazado_438" data-name="Trazado 438" d="M6341,1702.4a27.293,27.293,0,1,1,27.292-27.293A27.323,27.323,0,0,1,6341,1702.4m0-51.653a24.361,24.361,0,1,0,24.361,24.36,24.388,24.388,0,0,0-24.361-24.36" transform="translate(0.292 1542.186)" fill="#fff"/>
    <path id="Icon_zocial-email" data-name="Icon zocial-email" d="M.072,21.5V5.762q0-.027.082-.519l9.261,7.923L.181,22.044A2.315,2.315,0,0,1,.072,21.5ZM1.3,4.15a1.177,1.177,0,0,1,.464-.082H26.708a1.547,1.547,0,0,1,.492.082L17.911,12.1l-1.229.983-2.431,1.994-2.431-1.994L10.59,12.1Zm.027,18.96,9.316-8.933L14.251,17.1l3.606-2.923,9.316,8.933a1.312,1.312,0,0,1-.464.082H1.766a1.237,1.237,0,0,1-.437-.082Zm17.757-9.944L28.32,5.243a1.63,1.63,0,0,1,.082.519V21.5a2.094,2.094,0,0,1-.082.546Z" transform="translate(6326.928 3203.932)" fill="#fff"/>
  </g>
</svg>
