<svg xmlns="http://www.w3.org/2000/svg" width="38" height="38" viewBox="0 0 38 38">
  <defs>
    <style>
      .cls-1 {
        fill: #0077b5;
        stroke: #fff;
        stroke-width: 3px;
      }

      .cls-2 {
        fill: #fff;
      }

      .cls-3 {
        stroke: none;
      }

      .cls-4 {
        fill: none;
      }
    </style>
  </defs>
  <g id="icon-in" transform="translate(703 -31)">
    <g id="Elipse_1" data-name="Elipse 1" class="cls-1" transform="translate(-703 31)">
      <circle class="cls-3" cx="19" cy="19" r="19"/>
      <circle class="cls-4" cx="19" cy="19" r="17.5"/>
    </g>
    <g id="Grupo_2193" data-name="Grupo 2193" transform="translate(-74.381 3.371)">
      <path id="Trazado_1117" data-name="Trazado 1117" class="cls-2" d="M265.023,509.677v6.094a.273.273,0,0,1-.273.273H261.6a.273.273,0,0,1-.273-.273V510.1c0-1.492-.533-2.51-1.869-2.51a2.019,2.019,0,0,0-1.893,1.35,2.52,2.52,0,0,0-.122.9v5.927a.273.273,0,0,1-.273.273h-3.145a.272.272,0,0,1-.273-.273c.007-1.509.039-8.831.007-10.553a.271.271,0,0,1,.273-.276h3.138a.273.273,0,0,1,.273.273v1.3c-.007.012-.018.024-.025.037h.025v-.037a3.665,3.665,0,0,1,3.327-1.834c2.428,0,4.249,1.587,4.249,5ZM248.3,516.042h3.146a.273.273,0,0,0,.273-.273V505.215a.273.273,0,0,0-.273-.273H248.3a.273.273,0,0,0-.273.273v10.556a.273.273,0,0,0,.274.273Z" transform="translate(-865.642 -462.489)"/>
      <g id="Grupo_2175" data-name="Grupo 2175" transform="translate(-617.44 37.629)">
        <circle id="Elipse_63" data-name="Elipse 63" class="cls-2" cx="1.975" cy="1.975" r="1.975" transform="translate(0 0)"/>
      </g>
    </g>
  </g>
</svg>
