<svg xmlns="http://www.w3.org/2000/svg" xmlns:xlink="http://www.w3.org/1999/xlink" width="67" height="67" viewBox="0 0 67 67">
  <defs>
    <style>
      .cls-1, .cls-4 {
        fill: none;
      }

      .cls-2 {
        clip-path: url(#clip-path);
      }

      .cls-3 {
        fill: url(#linear-gradient);
      }

      .cls-4 {
        stroke: #2dbaff;
        stroke-miterlimit: 10;
        stroke-width: 3px;
      }

      .cls-5 {
        fill: #2aaaff;
      }
    </style>
    <clipPath id="clip-path">
      <path id="Trazado_433" data-name="Trazado 433" class="cls-1" d="M12157.854,455.474a8.992,8.992,0,1,1,8.814,7.216,8.993,8.993,0,0,1-8.814-7.216m10.8-15.785-4.172.032a.681.681,0,0,0-.674.684l.013,1.693a.95.95,0,0,1-.644.871s-.346.1-.829.3a10.2,10.2,0,0,0-.932.444.963.963,0,0,1-1.075-.146l-1.206-1.186a.679.679,0,0,0-.958.007l-2.929,2.972a.684.684,0,0,0,.008.96l1.205,1.186a.959.959,0,0,1,.164,1.074,10.06,10.06,0,0,0-.43.939c-.192.486-.289.833-.289.833a.959.959,0,0,1-.861.658l-1.694.014a.68.68,0,0,0-.674.683l.032,4.172a.681.681,0,0,0,.684.674l1.7-.014a.959.959,0,0,1,.871.646s.1.332.3.809a9.688,9.688,0,0,0,.456.958.959.959,0,0,1-.145,1.074l-1.2,1.221a.678.678,0,0,0,.006.959l2.974,2.928a.679.679,0,0,0,.959-.008l1.211-1.23a.972.972,0,0,1,1.077-.164,9.852,9.852,0,0,0,.909.414c.487.193.834.29.834.29a.955.955,0,0,1,.658.862l.013,1.715a.68.68,0,0,0,.686.673l4.172-.032a.679.679,0,0,0,.672-.684l-.013-1.719a.963.963,0,0,1,.646-.873s.331-.1.807-.3a9.83,9.83,0,0,0,.932-.444.963.963,0,0,1,1.076.145l1.227,1.208a.68.68,0,0,0,.959-.007l2.927-2.973a.681.681,0,0,0-.007-.961l-1.226-1.207a.962.962,0,0,1-.163-1.074,9.99,9.99,0,0,0,.428-.938c.191-.48.284-.811.284-.811a.963.963,0,0,1,.863-.659l1.719-.014a.679.679,0,0,0,.673-.683l-.031-4.172a.681.681,0,0,0-.684-.673l-1.716.013a.96.96,0,0,1-.87-.644s-.1-.347-.3-.829a10,10,0,0,0-.428-.9.963.963,0,0,1,.147-1.077l1.192-1.21a.683.683,0,0,0-.009-.96l-2.972-2.927a.682.682,0,0,0-.96.007l-1.182,1.2a.957.957,0,0,1-1.073.162,10.149,10.149,0,0,0-.965-.444c-.479-.19-.812-.284-.812-.284a.957.957,0,0,1-.658-.862l-.014-1.7a.681.681,0,0,0-.679-.674h0" transform="translate(-12152.678 -439.686)"/>
    </clipPath>
    <linearGradient id="linear-gradient" x1="-12.945" y1="18.813" x2="-12.916" y2="18.813" gradientUnits="objectBoundingBox">
      <stop offset="0" stop-color="#1b2f80"/>
      <stop offset="0.678" stop-color="#076db1"/>
      <stop offset="1" stop-color="#0086c5"/>
    </linearGradient>
  </defs>
  <g id="icon-suministradora-potencia" transform="translate(-4733.899 1741.5)">
    <g id="Grupo_326" data-name="Grupo 326" class="cls-2" transform="translate(4753.726 -1722.162)">
      <rect id="Rectángulo_218" data-name="Rectángulo 218" class="cls-3" width="28" height="27.997" transform="translate(-0.034 0.003)"/>
    </g>
    <path id="Trazado_465" data-name="Trazado 465" class="cls-4" d="M12130.4,450a32,32,0,1,0,32-32A32,32,0,0,0,12130.4,450Z" transform="translate(-7395.001 -2158)"/>
    <path id="Trazado_432" data-name="Trazado 432" class="cls-5" d="M12170.7,454.945l3.725-6.005a.191.191,0,0,0-.3-.231l-4.822,5.166a1.657,1.657,0,1,0,1.4,1.07" transform="translate(-7401.584 -2163.438)"/>
    <path id="Trazado_434" data-name="Trazado 434" class="cls-5" d="M12172.034,448.565l-2.311,2.311s-7-3.2-8.711,7.409a7.674,7.674,0,0,1,11.022-9.722" transform="translate(-7400.311 -2163.218)"/>
  </g>
</svg>
