<svg xmlns="http://www.w3.org/2000/svg" width="54.584" height="54.585" viewBox="0 0 54.584 54.585">
  <g id="icon-tel" transform="translate(-6313.708 -1576.814)">
    <path id="Trazado_3" data-name="Trazado 3" d="M6325.96,1597.733a9.107,9.107,0,0,1,2.517-5.977,2.467,2.467,0,0,1,.843-.6,8.742,8.742,0,0,1,2.853-.667.978.978,0,0,1,1,.5c.342.592.672,1.19,1.016,1.779.766,1.309,1.528,2.617,2.309,3.916.544.907.528,1.322-.217,2.08-.418.424-.886.8-1.332,1.194-.52.461-1.051.913-1.557,1.389a.992.992,0,0,0-.227,1.29c.584,1.038,1.158,2.086,1.807,3.084a20.594,20.594,0,0,0,7.34,6.755c.53.3,1.061.6,1.6.867a.914.914,0,0,0,1.133-.189c.491-.509.957-1.042,1.43-1.569.433-.479.832-.993,1.295-1.44a1.319,1.319,0,0,1,1.963-.2c1.475.873,2.956,1.736,4.435,2.6.44.257.887.5,1.325.762a.965.965,0,0,1,.5.968,8.8,8.8,0,0,1-.7,2.958,2.231,2.231,0,0,1-.544.748,8.957,8.957,0,0,1-6.233,2.534,9.493,9.493,0,0,1-3.053-.634c-1.007-.354-2.009-.726-3.007-1.107a20.109,20.109,0,0,1-5.291-3.094,41.245,41.245,0,0,1-6.379-6.365,26.526,26.526,0,0,1-4.362-8.837,8.266,8.266,0,0,1-.467-2.75" fill="#fff"/>
    <path id="Trazado_5" data-name="Trazado 5" d="M6341,1631.4a27.293,27.293,0,1,1,27.292-27.293A27.323,27.323,0,0,1,6341,1631.4m0-51.653a24.361,24.361,0,1,0,24.361,24.36,24.388,24.388,0,0,0-24.361-24.36" fill="#fff"/>
  </g>
</svg>
