<svg id="linkedin-alt" xmlns="http://www.w3.org/2000/svg" width="16" height="14.993" viewBox="0 0 16 14.993">
  <path id="Trazado_1117" data-name="Trazado 1117" d="M264.027,509.583v5.979a.263.263,0,0,1-.257.268H260.8a.263.263,0,0,1-.257-.268V510c0-1.464-.5-2.463-1.759-2.463a1.908,1.908,0,0,0-1.782,1.325,2.57,2.57,0,0,0-.115.883v5.815a.263.263,0,0,1-.257.268h-2.961a.251.251,0,0,1-.182-.078.273.273,0,0,1-.075-.19c.007-1.481.037-8.665.007-10.354a.272.272,0,0,1,.074-.192.25.25,0,0,1,.183-.079h2.954a.263.263,0,0,1,.257.268v1.275c-.007.012-.017.024-.024.036h.024v-.036a3.421,3.421,0,0,1,3.132-1.8c2.286,0,4,1.557,4,4.906Zm-15.743,6.245h2.962a.263.263,0,0,0,.257-.268V505.2a.263.263,0,0,0-.257-.268h-2.962a.263.263,0,0,0-.257.268v10.357a.274.274,0,0,0,.076.19.252.252,0,0,0,.182.078Z" transform="translate(-248.027 -500.837)" fill="#fff"/>
  <g id="Grupo_2175" data-name="Grupo 2175" transform="translate(0.147 0)">
    <circle id="Elipse_63" data-name="Elipse 63" cx="1.663" cy="1.663" r="1.663" transform="translate(0)" fill="#fff"/>
  </g>
</svg>
