<svg xmlns="http://www.w3.org/2000/svg" width="40" height="39.999" viewBox="0 0 40 39.999">
  <defs>
    <style>
      .cls-1, .cls-2 {
        fill: #ffff;
      }

      .cls-2 {
        fill-rule: evenodd;
      }
    </style>
  </defs>
  <g id="icon-facebook" transform="translate(-233.707 -391.805)">
    <g id="Grupo_2167" data-name="Grupo 2167" transform="translate(233.707 391.805)">
      <g id="Grupo_2165" data-name="Grupo 2165">
        <path id="Trazado_1113" data-name="Trazado 1113" class="cls-1" d="M253.707,431.8a20,20,0,1,1,20-20A20.022,20.022,0,0,1,253.707,431.8Zm0-37.851A17.851,17.851,0,1,0,271.558,411.8,17.871,17.871,0,0,0,253.707,393.954Z" transform="translate(-233.707 -391.805)"/>
      </g>
      <g id="Grupo_2166" data-name="Grupo 2166" transform="translate(14.41 8.012)">
        <path id="Trazado_1114" data-name="Trazado 1114" class="cls-2" d="M255.825,414.82v11.592a.3.3,0,0,0,.3.3h4.3a.3.3,0,0,0,.3-.3v-11.78h3.121a.3.3,0,0,0,.3-.277l.3-3.549a.3.3,0,0,0-.3-.328h-3.421V407.96a1.069,1.069,0,0,1,1.069-1.068h2.4a.3.3,0,0,0,.3-.3v-3.55a.3.3,0,0,0-.3-.3h-4.064a4.318,4.318,0,0,0-4.318,4.318v3.422h-2.152a.3.3,0,0,0-.3.3v3.55a.3.3,0,0,0,.3.3h2.152Z" transform="translate(-253.371 -402.738)"/>
      </g>
    </g>
  </g>
</svg>
