<svg xmlns="http://www.w3.org/2000/svg" width="40" height="40" viewBox="0 0 40 40">
  <g id="Grupo_333" data-name="Grupo 333" transform="translate(-2382.754 -1894.949)">
    <path id="Trazado_95" data-name="Trazado 95" d="M2402.754,1934.949a20,20,0,1,1,20-20,20.022,20.022,0,0,1-20,20m0-37.848a17.848,17.848,0,1,0,17.848,17.848,17.868,17.868,0,0,0-17.848-17.848" fill="#fff"/>
    <path id="Trazado_96" data-name="Trazado 96" d="M2416.6,1918.218v8.074a.362.362,0,0,1-.361.361h-4.168a.362.362,0,0,1-.361-.361v-7.509c0-1.976-.707-3.325-2.477-3.325a2.675,2.675,0,0,0-2.509,1.788,3.337,3.337,0,0,0-.162,1.192v7.854a.361.361,0,0,1-.361.361h-4.166a.36.36,0,0,1-.362-.361c.009-2,.051-11.7.009-13.982a.359.359,0,0,1,.361-.366h4.159a.361.361,0,0,1,.361.361v1.723c-.011.017-.024.033-.033.049h.033v-.049a4.854,4.854,0,0,1,4.407-2.429c3.218,0,5.63,2.1,5.63,6.619m-22.16,8.435h4.166a.361.361,0,0,0,.361-.361v-13.987a.361.361,0,0,0-.361-.361h-4.166a.361.361,0,0,0-.361.361v13.987a.361.361,0,0,0,.361.361" transform="translate(-1.774 -1.917)" fill="#fff"/>
    <path id="Trazado_97" data-name="Trazado 97" d="M2399,1907.456a2.618,2.618,0,1,1-2.618-2.618,2.618,2.618,0,0,1,2.618,2.618" transform="translate(-0.94 -0.845)" fill="#fff"/>
  </g>
</svg>
