<svg xmlns="http://www.w3.org/2000/svg" width="38" height="38" viewBox="0 0 38 38">
  <defs>
    <style>
      .cls-1 {
        fill: #1da1f2;
        stroke: #fff;
        stroke-width: 3px;
      }

      .cls-2 {
        fill: #fff;
      }

      .cls-3 {
        stroke: none;
      }

      .cls-4 {
        fill: none;
      }
    </style>
  </defs>
  <g id="icon-tw" transform="translate(722 -213)">
    <g id="Elipse_1" data-name="Elipse 1" class="cls-1" transform="translate(-722 213)">
      <circle class="cls-3" cx="19" cy="19" r="19"/>
      <circle class="cls-4" cx="19" cy="19" r="17.5"/>
    </g>
    <path id="Icon_awesome-twitter" data-name="Icon awesome-twitter" class="cls-2" d="M17.047,7.226c.011.169.011.338.011.506A11,11,0,0,1,5.979,18.812,11,11,0,0,1,0,17.064a8.055,8.055,0,0,0,.944.048,7.8,7.8,0,0,0,4.835-1.663,3.905,3.905,0,0,1-3.645-2.7,4.911,4.911,0,0,0,.739.06A4.117,4.117,0,0,0,3.9,12.676,3.9,3.9,0,0,1,.772,8.854V8.806A3.921,3.921,0,0,0,2.533,9.3,3.9,3.9,0,0,1,1.322,4.092,11.069,11.069,0,0,0,9.35,8.166a4.4,4.4,0,0,1-.094-.9A3.9,3.9,0,0,1,16,4.61a7.666,7.666,0,0,0,2.473-.944A3.883,3.883,0,0,1,16.76,5.812a7.811,7.811,0,0,0,2.24-.6,8.371,8.371,0,0,1-1.953,2.017Z" transform="translate(-712.059 221.795)"/>
  </g>
</svg>
