<svg xmlns="http://www.w3.org/2000/svg" width="38" height="38" viewBox="0 0 38 38">
  <defs>
    <style>
      .cls-1, .cls-2, .cls-4 {
        fill: none;
      }

      .cls-1, .cls-2 {
        stroke: #fff;
      }

      .cls-1 {
        stroke-width: 3px;
      }

      .cls-2 {
        stroke-linecap: round;
        stroke-linejoin: round;
        stroke-width: 1.75px;
      }

      .cls-3 {
        stroke: none;
      }
    </style>
  </defs>
  <g id="icon-tel" transform="translate(697 39)">
    <g id="Elipse_1" data-name="Elipse 1" class="cls-1" transform="translate(-697 -39)">
      <circle class="cls-3" cx="19" cy="19" r="19"/>
      <circle class="cls-4" cx="19" cy="19" r="17.5"/>
    </g>
    <path id="Icon_feather-phone-call" data-name="Icon feather-phone-call" class="cls-2" d="M13.7,4.755A4.069,4.069,0,0,1,16.912,7.97M13.7,1.5a7.325,7.325,0,0,1,6.47,6.462m-.814,6.495V16.9a1.628,1.628,0,0,1-1.774,1.628,16.106,16.106,0,0,1-7.024-2.5,15.87,15.87,0,0,1-4.883-4.883,16.106,16.106,0,0,1-2.5-7.056,1.628,1.628,0,0,1,1.62-1.774H7.236a1.628,1.628,0,0,1,1.628,1.4A10.45,10.45,0,0,0,9.433,6a1.628,1.628,0,0,1-.366,1.717L8.033,8.751a13.022,13.022,0,0,0,4.883,4.883L13.95,12.6a1.628,1.628,0,0,1,1.717-.366,10.45,10.45,0,0,0,2.287.57A1.628,1.628,0,0,1,19.354,14.457Z" transform="translate(-690.668 -29)"/>
  </g>
</svg>
