<svg xmlns="http://www.w3.org/2000/svg" width="38" height="38" viewBox="0 0 38 38">
  <defs>
    <style>
      .cls-1 {
        fill: #383838;
        stroke: #fff;
        stroke-width: 2px;
      }

      .cls-2 {
        fill: #fff;
      }

      .cls-3 {
        stroke: none;
      }

      .cls-4 {
        fill: none;
      }
    </style>
  </defs>
  <g id="icon-in" transform="translate(-154 -171)">
    <g id="Elipse_2" data-name="Elipse 2" class="cls-1" transform="translate(154 171)">
      <circle class="cls-3" cx="19" cy="19" r="19"/>
      <circle class="cls-4" cx="19" cy="19" r="18"/>
    </g>
    <path id="Icon_awesome-linkedin-in" data-name="Icon awesome-linkedin-in" class="cls-2" d="M4.006,17.882H.3V5.944H4.006ZM2.149,4.315A2.157,2.157,0,1,1,4.3,2.148,2.157,2.157,0,0,1,2.149,4.315ZM17.884,17.882h-3.7V12.07c0-1.385-.028-3.162-1.928-3.162-1.928,0-2.223,1.5-2.223,3.061v5.912H6.327V5.944H9.883V7.572h.051a3.9,3.9,0,0,1,3.508-1.928c3.752,0,4.442,2.471,4.442,5.681Z" transform="translate(164.057 181.058)"/>
  </g>
</svg>
