<svg xmlns="http://www.w3.org/2000/svg" width="40" height="39.999" viewBox="0 0 40 39.999">
  <defs>
    <style>
      .cls-1, .cls-2 {
        fill: #29aaff;
      }

      .cls-2 {
        fill-rule: evenodd;
      }
    </style>
  </defs>
  <g id="icon-twitter" transform="translate(-233.707 -300)">
    <g id="Grupo_2163" data-name="Grupo 2163" transform="translate(233.707 300)">
      <g id="Grupo_2156" data-name="Grupo 2156">
        <path id="Trazado_1107" data-name="Trazado 1107" class="cls-1" d="M253.707,340a20,20,0,1,1,20-20A20.022,20.022,0,0,1,253.707,340Zm0-37.851A17.851,17.851,0,1,0,271.558,320,17.871,17.871,0,0,0,253.707,302.149Z" transform="translate(-233.707 -300)"/>
      </g>
      <g id="Grupo_2162" data-name="Grupo 2162" transform="translate(8.271 10.399)">
        <g id="Grupo_2157" data-name="Grupo 2157">
          <path id="Trazado_1108" data-name="Trazado 1108" class="cls-1" d="M268.218,316.493a9.6,9.6,0,0,1-2.354.673c.379-.064.938-.75,1.161-1.028a4.325,4.325,0,0,0,.785-1.428c.02-.041.035-.092-.005-.122a.132.132,0,0,0-.125.01,12.059,12.059,0,0,1-2.8,1.071.187.187,0,0,1-.193-.051,2.206,2.206,0,0,0-.245-.25,4.926,4.926,0,0,0-1.355-.83,4.709,4.709,0,0,0-2.078-.335,4.967,4.967,0,0,0-1.971.557,5.091,5.091,0,0,0-1.591,1.3,4.873,4.873,0,0,0-.95,1.9,5.162,5.162,0,0,0-.051,2.009c.015.112.005.128-.1.112a14.936,14.936,0,0,1-9.611-4.892c-.112-.128-.174-.128-.265.01a4.873,4.873,0,0,0,.831,5.759c.188.178.382.357.591.52a4.908,4.908,0,0,1-1.855-.52c-.112-.071-.169-.031-.179.1a2.9,2.9,0,0,0,.031.55,4.927,4.927,0,0,0,3.037,3.929,2.856,2.856,0,0,0,.616.188,5.492,5.492,0,0,1-1.82.056c-.132-.026-.183.041-.132.168a5.117,5.117,0,0,0,3.821,3.2c.174.03.347.03.52.071-.01.015-.021.015-.031.03-.429.654-1.917,1.142-2.61,1.384a9.349,9.349,0,0,1-3.964.508c-.213-.032-.258-.029-.316,0s-.007.086.061.142c.27.178.545.336.826.49a13.055,13.055,0,0,0,2.65,1.06,14.113,14.113,0,0,0,13.7-3.2c2.808-2.79,3.792-6.637,3.792-10.489,0-.151.178-.234.284-.314a9.211,9.211,0,0,0,1.856-1.939.565.565,0,0,0,.115-.372v-.021C268.3,316.431,268.312,316.45,268.218,316.493Z" transform="translate(-244.994 -314.191)"/>
        </g>
        <g id="Grupo_2158" data-name="Grupo 2158" transform="translate(6.922 19.118)">
          <path id="Trazado_1109" data-name="Trazado 1109" class="cls-2" d="M254.441,340.281Z" transform="translate(-254.441 -340.281)"/>
        </g>
        <g id="Grupo_2159" data-name="Grupo 2159" transform="translate(6.745 19.118)">
          <path id="Trazado_1110" data-name="Trazado 1110" class="cls-2" d="M254.376,340.281c-.03,0-.385,0,0,0Z" transform="translate(-254.198 -340.281)"/>
        </g>
        <g id="Grupo_2160" data-name="Grupo 2160" transform="translate(7.707 19.121)">
          <path id="Trazado_1111" data-name="Trazado 1111" class="cls-2" d="M255.512,340.3c0-.04.413,0,0,0C255.512,340.282,255.563,340.3,255.512,340.3Z" transform="translate(-255.512 -340.285)"/>
        </g>
        <g id="Grupo_2161" data-name="Grupo 2161" transform="translate(15.856 0.028)">
          <path id="Trazado_1112" data-name="Trazado 1112" class="cls-2" d="M266.729,314.23a.083.083,0,0,1-.1,0Z" transform="translate(-266.632 -314.23)"/>
        </g>
      </g>
    </g>
  </g>
</svg>
