<svg xmlns="http://www.w3.org/2000/svg" xmlns:xlink="http://www.w3.org/1999/xlink" width="100" height="100" viewBox="0 0 100 100">
  <defs>
    <clipPath id="clip-path">
      <path id="Trazado_24" data-name="Trazado 24" d="M4890,1276a50,50,0,1,0,50-50,50,50,0,0,0-50,50" fill="none"/>
    </clipPath>
    <clipPath id="clip-path-2">
      <rect id="Rectángulo_13" data-name="Rectángulo 13" width="126" height="126" transform="translate(4877 1213)" fill="none"/>
    </clipPath>
  </defs>
  <g id="Grupo_335" data-name="Grupo 335" transform="translate(-4890 -1928)">
    <g id="Grupo_334" data-name="Grupo 334" transform="translate(0 702)">
      <g id="Grupo_19" data-name="Grupo 19" clip-path="url(#clip-path)">
        <path id="Trazado_21" data-name="Trazado 21" d="M4958.811,1265.445a18.338,18.338,0,1,1-18.338-18.337,18.338,18.338,0,0,1,18.338,18.337" fill="#fff"/>
        <path id="Trazado_22" data-name="Trazado 22" d="M4905.946,1318.309a34.527,34.527,0,0,1,69.054,0S4932,1338,4919,1330s-13.054-11.691-13.054-11.691" fill="#fff"/>
        <g id="Grupo_18" data-name="Grupo 18" opacity="0.1">
          <g id="Grupo_17" data-name="Grupo 17">
            <g id="Grupo_16" data-name="Grupo 16" clip-path="url(#clip-path-2)">
              <path id="Trazado_23" data-name="Trazado 23" d="M5003,1276a63,63,0,1,1-63-63,63,63,0,0,1,63,63" fill="#424242"/>
            </g>
          </g>
        </g>
      </g>
    </g>
  </g>
</svg>
