<svg xmlns="http://www.w3.org/2000/svg" width="38" height="38" viewBox="0 0 38 38">
  <defs>
    <style>
      .cls-1 {
        fill: #383838;
        stroke: #fff;
        stroke-width: 2px;
      }

      .cls-2 {
        fill: #fff;
      }

      .cls-3 {
        stroke: none;
      }

      .cls-4 {
        fill: none;
      }
    </style>
  </defs>
  <g id="icon-tw" transform="translate(-208 -173)">
    <g id="Elipse_3" data-name="Elipse 3" class="cls-1" transform="translate(208 173)">
      <circle class="cls-3" cx="19" cy="19" r="19"/>
      <circle class="cls-4" cx="19" cy="19" r="18"/>
    </g>
    <path id="Icon_awesome-twitter" data-name="Icon awesome-twitter" class="cls-2" d="M18.05,7.453c.012.179.012.358.012.536A11.65,11.65,0,0,1,6.331,19.72,11.651,11.651,0,0,1,0,17.869a8.53,8.53,0,0,0,1,.051,8.257,8.257,0,0,0,5.119-1.761A4.135,4.135,0,0,1,2.26,13.3a5.2,5.2,0,0,0,.782.064,4.359,4.359,0,0,0,1.085-.141A4.124,4.124,0,0,1,.817,9.176V9.125a4.152,4.152,0,0,0,1.865.524A4.13,4.13,0,0,1,1.4,4.134a11.72,11.72,0,0,0,8.5,4.314A4.655,4.655,0,0,1,9.8,7.5,4.127,4.127,0,0,1,16.94,4.683a8.117,8.117,0,0,0,2.619-1,4.112,4.112,0,0,1-1.813,2.272,8.271,8.271,0,0,0,2.372-.638A8.863,8.863,0,0,1,18.05,7.453Z" transform="translate(216.941 180.795)"/>
  </g>
</svg>
