<svg xmlns="http://www.w3.org/2000/svg" width="73.945" height="73.943" viewBox="0 0 73.945 73.943">
  <g id="icon-generadora-potencia" transform="translate(-5336.527 1582.473)">
    <g id="Grupo_344" data-name="Grupo 344" transform="translate(5354.62 -1564.38)">
      <path id="Trazado_422" data-name="Trazado 422" d="M12771.75,619.2l5.014-8.085a.257.257,0,0,0-.406-.31l-6.492,6.953a2.231,2.231,0,1,0,1.885,1.442" transform="translate(-12750.97 -600.8)" fill="#fff"/>
      <path id="Trazado_423" data-name="Trazado 423" d="M12786.363,614.983l-2.307.018a1.286,1.286,0,0,1-1.172-.868s-.141-.465-.408-1.115c-.293-.7-.576-1.218-.576-1.218a1.3,1.3,0,0,1,.2-1.45l1.6-1.63a.911.911,0,0,0-.012-1.291l-4-3.94a.916.916,0,0,0-1.291.01l-1.59,1.615a1.293,1.293,0,0,1-1.445.218,13.912,13.912,0,0,0-1.3-.6c-.648-.256-1.1-.382-1.1-.382a1.3,1.3,0,0,1-.887-1.16l-.016-2.288a.918.918,0,0,0-.922-.906l-5.613.043a.919.919,0,0,0-.908.92l.018,2.28a1.287,1.287,0,0,1-.867,1.173s-.465.138-1.117.407a13.684,13.684,0,0,0-1.25.6,1.3,1.3,0,0,1-1.451-.2l-1.621-1.6a.915.915,0,0,0-1.291.01l-3.941,4a.918.918,0,0,0,.01,1.292l1.623,1.6a1.3,1.3,0,0,1,.219,1.446,13.718,13.718,0,0,0-.576,1.261c-.26.655-.391,1.122-.391,1.122a1.289,1.289,0,0,1-1.16.886l-2.279.018a.916.916,0,0,0-.906.921l.045,5.615a.915.915,0,0,0,.918.906l2.289-.018a1.286,1.286,0,0,1,1.172.868s.135.446.4,1.088a13.384,13.384,0,0,0,.617,1.288,1.3,1.3,0,0,1-.2,1.448l-1.619,1.642a.915.915,0,0,0,.012,1.291l4,3.94a.915.915,0,0,0,1.291-.01l1.631-1.656a1.3,1.3,0,0,1,1.447-.221,13.277,13.277,0,0,0,1.227.558c.654.259,1.121.391,1.121.391a1.29,1.29,0,0,1,.887,1.16l.016,2.307a.918.918,0,0,0,.922.906l5.617-.043a.915.915,0,0,0,.9-.92l-.018-2.314a1.294,1.294,0,0,1,.867-1.174s.447-.133,1.088-.4a13.482,13.482,0,0,0,1.254-.6,1.3,1.3,0,0,1,1.449.2l1.648,1.624a.918.918,0,0,0,1.293-.009l3.941-4a.918.918,0,0,0-.012-1.291l-1.648-1.624a1.3,1.3,0,0,1-.221-1.446,13.17,13.17,0,0,0,.576-1.263c.256-.645.383-1.094.383-1.094a1.291,1.291,0,0,1,1.16-.885l2.314-.018a.919.919,0,0,0,.908-.921l-.043-5.615a.919.919,0,0,0-.922-.906m-15.473,15.735a12.117,12.117,0,1,1,9.469-14.282,12.117,12.117,0,0,1-9.469,14.282" transform="translate(-12749.643 -600)" fill="#fff"/>
      <path id="Trazado_424" data-name="Trazado 424" d="M12774.622,610.794l-3.112,3.113s-9.418-4.3-11.726,9.974a10.33,10.33,0,0,1,14.838-13.087" transform="translate(-12750.329 -600.689)" fill="#fff"/>
    </g>
    <path id="Trazado_455" data-name="Trazado 455" d="M12730.685,620.039a36,36,0,1,0,36-36A36,36,0,0,0,12730.685,620.039Z" transform="translate(-7393.185 -2165.54)" fill="none" stroke="#fff" stroke-miterlimit="10" stroke-width="1.945"/>
  </g>
</svg>
