<svg xmlns="http://www.w3.org/2000/svg" xmlns:xlink="http://www.w3.org/1999/xlink" width="73.945" height="73.944" viewBox="0 0 73.945 73.944">
  <defs>
    <clipPath id="clip-path">
      <path id="Trazado_442" data-name="Trazado 442" d="M12158.358,644.758l-3.068,12.747a.533.533,0,0,0,.712.623l3.927-1.527a.534.534,0,0,1,.594.143l2.8,3.145a.534.534,0,0,0,.919-.23l2.35-9.762c-.907-.418-1.7-1.612-2.594-1.851a4.029,4.029,0,0,0-1.75.126,2.985,2.985,0,0,1-2.023.006c-1.034-.6-.957-2.671-1.863-3.42h0m15.818,3.419a2.993,2.993,0,0,1-2.026-.006,4.015,4.015,0,0,0-1.747-.126c-.894.239-1.686,1.432-2.594,1.851l2.35,9.762a.534.534,0,0,0,.919.23l2.8-3.145a.535.535,0,0,1,.594-.143l3.925,1.527a.535.535,0,0,0,.715-.623l-3.067-12.747h0c-.906.75-.827,2.821-1.862,3.42m-15.751-12.083a8.774,8.774,0,1,1,8.775,8.774,8.775,8.775,0,0,1-8.775-8.774m5.918-10.659a3.556,3.556,0,0,1-1.56-.111,2.663,2.663,0,0,0-1.8-.006c-.892.515-.856,2.252-1.58,2.974s-2.459.689-2.974,1.58.383,2.363.115,3.365c-.258.97-1.781,1.806-1.781,2.857s1.523,1.888,1.781,2.857c.268,1-.624,2.487-.116,3.365s2.251.857,2.975,1.58.688,2.46,1.58,2.974a2.659,2.659,0,0,0,1.8,0,3.549,3.549,0,0,1,1.561-.112c.969.258,1.806,1.78,2.857,1.78s1.887-1.522,2.856-1.78a3.54,3.54,0,0,1,1.559.112,2.662,2.662,0,0,0,1.8,0c.892-.515.856-2.252,1.58-2.974s2.46-.688,2.974-1.58-.384-2.362-.115-3.365c.259-.969,1.782-1.806,1.782-2.857s-1.523-1.887-1.782-2.857c-.269-1,.623-2.487.115-3.365s-2.251-.857-2.974-1.58-.688-2.459-1.579-2.974a2.669,2.669,0,0,0-1.807.006,3.547,3.547,0,0,1-1.558.111c-.97-.259-1.807-1.781-2.856-1.781s-1.889,1.522-2.857,1.781" transform="translate(-12154.76 -623.654)" fill="none"/>
    </clipPath>
    <linearGradient id="linear-gradient" x1="-16.468" y1="11.552" x2="-16.43" y2="11.552" gradientUnits="objectBoundingBox">
      <stop offset="0" stop-color="#1b2f80"/>
      <stop offset="0.678" stop-color="#076db1"/>
      <stop offset="1" stop-color="#0086c5"/>
    </linearGradient>
  </defs>
  <g id="icon-suministradora-dft" transform="translate(-4643.527 1554.473)">
    <path id="Trazado_467" data-name="Trazado 467" d="M12131.01,640.078a36,36,0,1,0,36-36A36,36,0,0,0,12131.01,640.078Z" transform="translate(-7486.51 -2157.579)" fill="none" stroke="#2dbaff" stroke-miterlimit="10" stroke-width="1.945"/>
    <g id="Grupo_350" data-name="Grupo 350" transform="translate(4668.098 -1535.455)">
      <g id="Grupo_334" data-name="Grupo 334" transform="translate(0 0)" clip-path="url(#clip-path)">
        <rect id="Rectángulo_227" data-name="Rectángulo 227" width="24.881" height="36.557" transform="translate(0 0)" fill="url(#linear-gradient)"/>
      </g>
      <path id="Trazado_441" data-name="Trazado 441" d="M12173.092,631.985l-6.574,6.574-2.927-2.926-1.69,1.691,3.771,3.772a1.194,1.194,0,0,0,1.69,0l7.421-7.42Z" transform="translate(-12155.292 -624.276)" fill="#2aaaff"/>
    </g>
  </g>
</svg>
