<svg xmlns="http://www.w3.org/2000/svg" width="50.557" height="50.621" viewBox="0 0 50.557 50.621">
  <g id="icon-whatsapp" transform="translate(-6320.443 -1715.528)">
    <path id="Trazado_19" data-name="Trazado 19" d="M6320.443,1766.149c.425-1.258.825-2.444,1.228-3.631,1.055-3.113,2.114-6.224,3.155-9.343a.8.8,0,0,0-.094-.565,23.765,23.765,0,0,1-2.827-7.311,24.7,24.7,0,0,1,19.208-29.231,24.889,24.889,0,0,1,25.349,9.867,23.236,23.236,0,0,1,4.491,12.426c.521,9.725-3.361,17.312-11.47,22.641a23.837,23.837,0,0,1-15.958,3.694,24.268,24.268,0,0,1-8.831-2.66,1.21,1.21,0,0,0-1.015-.091q-6.371,2.045-12.752,4.058c-.131.041-.263.08-.484.146m6.251-6.12c.221-.059.353-.088.481-.129,2.369-.752,4.74-1.5,7.1-2.266a.867.867,0,0,1,.808.092,20.932,20.932,0,0,0,28.942-6.785,19.732,19.732,0,0,0,2.83-13.753,20.9,20.9,0,0,0-20.566-17.7,20.944,20.944,0,0,0-18.869,11.661,20.495,20.495,0,0,0,1.64,20.864.708.708,0,0,1,.1.724c-.443,1.249-.859,2.508-1.284,3.764-.388,1.149-.775,2.3-1.191,3.531" fill="#fff"/>
    <path id="Trazado_20" data-name="Trazado 20" d="M6338.425,1728.989a2.1,2.1,0,0,0,.256,0c.952-.145,1.442.347,1.769,1.182.543,1.387,1.111,2.768,1.735,4.122a1.709,1.709,0,0,1-.227,1.892c-.387.519-.814,1.011-1.237,1.5a.88.88,0,0,0-.14,1.267,16.228,16.228,0,0,0,6.874,6.464c.461.221.922.442,1.393.638a.982.982,0,0,0,1.415-.339q.847-1.022,1.672-2.06c.507-.64.8-.752,1.53-.415,1.617.745,3.219,1.522,4.83,2.281a.886.886,0,0,1,.529.937c-.111,2.5-.842,3.732-3.6,4.9a5.4,5.4,0,0,1-3.932.215c-1.889-.653-3.805-1.259-5.627-2.068a17.685,17.685,0,0,1-5.4-4,27.506,27.506,0,0,1-5.353-7.329,7.426,7.426,0,0,1-.375-5.955,6.76,6.76,0,0,1,2.01-2.8,2.351,2.351,0,0,1,1.875-.436" fill="#fff"/>
  </g>
</svg>
