<svg xmlns="http://www.w3.org/2000/svg" xmlns:xlink="http://www.w3.org/1999/xlink" width="73.945" height="73.945" viewBox="0 0 73.945 73.945">
  <defs>
    <clipPath id="clip-path">
      <path id="Trazado_431" data-name="Trazado 431" d="M12165.025,922.138a1.036,1.036,0,0,1,1.036-1.036h5.142a1.036,1.036,0,0,1,0,2.071h-5.142a1.036,1.036,0,0,1-1.036-1.036m-1.723-3.756a1.037,1.037,0,0,1,1.036-1.036h8.587a1.036,1.036,0,0,1,0,2.071h-8.587a1.036,1.036,0,0,1-1.036-1.036m1.193-10.825a.76.76,0,1,1,1.52,0v2.626h-1.52Zm6.753,0a.76.76,0,1,1,1.52,0v2.626h-1.52Zm-17.606-4.649a21.974,21.974,0,0,0,3.365,34.712,9.145,9.145,0,0,0,13.958-7.788v-.848a8.505,8.505,0,0,0,5.866-8.189v-4.973a1.434,1.434,0,0,0-1.436-1.434h-1.185v-6.831a2.2,2.2,0,1,0-4.406,0v6.831h-2.347v-6.831a2.2,2.2,0,0,0-4.407,0v6.831h-1.184a1.436,1.436,0,0,0-1.437,1.434V920.8a8.5,8.5,0,0,0,5.867,8.189v.848a4.448,4.448,0,0,1-2.324,3.938,4.379,4.379,0,0,1-4.494-.107,17.3,17.3,0,1,1,14.3,1.837,2.334,2.334,0,1,0,1.386,4.457,21.975,21.975,0,0,0-4.979-42.9q-.791-.054-1.574-.055a21.753,21.753,0,0,0-14.969,5.908" transform="translate(-12146.66 -897)" fill="none"/>
    </clipPath>
    <linearGradient id="linear-gradient" x1="-9.034" y1="3.933" x2="-9.013" y2="3.933" gradientUnits="objectBoundingBox">
      <stop offset="0" stop-color="#1b2f80"/>
      <stop offset="0.678" stop-color="#076db1"/>
      <stop offset="1" stop-color="#0086c5"/>
    </linearGradient>
  </defs>
  <g id="icon-suministradora-distribuida" transform="translate(-4736.01 1275.775)">
    <g id="Grupo_324" data-name="Grupo 324" transform="translate(4750.565 -1262.029)" clip-path="url(#clip-path)">
      <rect id="Rectángulo_216" data-name="Rectángulo 216" width="44.526" height="43.062" transform="translate(0 0)" fill="url(#linear-gradient)"/>
    </g>
    <path id="Trazado_470" data-name="Trazado 470" d="M12131.982,919.2a36,36,0,1,0,36-36A36,36,0,0,0,12131.982,919.2Z" transform="translate(-7395 -2158)" fill="none" stroke="#2dbaff" stroke-miterlimit="10" stroke-width="1.945"/>
  </g>
</svg>
