<svg xmlns="http://www.w3.org/2000/svg" width="38" height="38" viewBox="0 0 38 38">
  <defs>
    <style>
      .cls-1 {
        fill: #fff;
      }

      .cls-2, .cls-4 {
        fill: none;
      }

      .cls-2 {
        stroke: #fff;
        stroke-width: 3px;
      }

      .cls-3 {
        stroke: none;
      }
    </style>
  </defs>
  <g id="icon-email" transform="translate(697 57)">
    <path id="Icon_simple-email" data-name="Icon simple-email" class="cls-1" d="M19.377,9.018a10.077,10.077,0,0,1-.325,2.186,6.325,6.325,0,0,1-.85,1.919,4.484,4.484,0,0,1-1.441,1.364,4.066,4.066,0,0,1-2.1.519,3.05,3.05,0,0,1-1.521-.372,2.605,2.605,0,0,1-1.028-1.054,3.259,3.259,0,0,1-2.757,1.385A2.8,2.8,0,0,1,6.944,13.67a4.237,4.237,0,0,1-.6-1.5,6.466,6.466,0,0,1-.078-1.956,9.086,9.086,0,0,1,.6-2.4,6.512,6.512,0,0,1,1.1-1.835,4.659,4.659,0,0,1,1.514-1.17,4.225,4.225,0,0,1,1.841-.409,5.725,5.725,0,0,1,1.1.094,4.508,4.508,0,0,1,.855.256,4.622,4.622,0,0,1,.708.374c.216.139.433.283.65.43L14.1,11.713a2.045,2.045,0,0,0,.016.72,1.008,1.008,0,0,0,.22.444.791.791,0,0,0,.357.232,1.324,1.324,0,0,0,1.253-.247,2.67,2.67,0,0,0,.672-.855,5.5,5.5,0,0,0,.452-1.284,8.813,8.813,0,0,0,.2-1.6,10.222,10.222,0,0,0-.252-2.989,5.941,5.941,0,0,0-1.106-2.313,5.137,5.137,0,0,0-1.983-1.49A7.2,7.2,0,0,0,11.036,1.8a6.379,6.379,0,0,0-2.857.623A6.556,6.556,0,0,0,6.008,4.154a8.286,8.286,0,0,0-1.421,2.6,11.7,11.7,0,0,0-.6,3.236,10.76,10.76,0,0,0,.305,3.3A5.963,5.963,0,0,0,5.5,15.654a5.034,5.034,0,0,0,2.044,1.421,7.84,7.84,0,0,0,2.821.471,9.661,9.661,0,0,0,1.851-.2c.305-.061.595-.134.871-.215a6.552,6.552,0,0,0,.75-.269l.387,1.741a4.3,4.3,0,0,1-.839.415,8.074,8.074,0,0,1-.991.287,9.674,9.674,0,0,1-2.071.232,10.86,10.86,0,0,1-3.775-.608,6.948,6.948,0,0,1-2.752-1.81,7.6,7.6,0,0,1-1.652-2.988,12.745,12.745,0,0,1-.462-4.148,12.649,12.649,0,0,1,.794-3.98A9.851,9.851,0,0,1,4.386,2.844,8.713,8.713,0,0,1,7.3.757,9.133,9.133,0,0,1,11.081,0a9.535,9.535,0,0,1,3.661.656A7.12,7.12,0,0,1,17.384,2.5a7.566,7.566,0,0,1,1.568,2.849A10.892,10.892,0,0,1,19.377,9.018Zm-10.486,1.2a4.154,4.154,0,0,0,.215,2.06,1.1,1.1,0,0,0,1.062.7,1.173,1.173,0,0,0,.364-.067,1.3,1.3,0,0,0,.419-.252,2.235,2.235,0,0,0,.425-.513,3.936,3.936,0,0,0,.391-.867l.418-4.781a2.5,2.5,0,0,0-.65-.085,2.246,2.246,0,0,0-1.081.248,2.139,2.139,0,0,0-.766.728,4.274,4.274,0,0,0-.508,1.2,10.15,10.15,0,0,0-.288,1.636Z" transform="translate(-688.826 -48.141)"/>
    <g id="Elipse_1" data-name="Elipse 1" class="cls-2" transform="translate(-697 -57)">
      <circle class="cls-3" cx="19" cy="19" r="19"/>
      <circle class="cls-4" cx="19" cy="19" r="17.5"/>
    </g>
  </g>
</svg>
