<svg xmlns="http://www.w3.org/2000/svg" xmlns:xlink="http://www.w3.org/1999/xlink" width="73.945" height="73.945" viewBox="0 0 73.945 73.945">
  <defs>
    <clipPath id="clip-path">
      <path id="Trazado_433" data-name="Trazado 433" d="M12158.465,457.447a10.116,10.116,0,1,1,9.916,8.118,10.128,10.128,0,0,1-9.916-8.118m12.151-17.758-4.694.036a.767.767,0,0,0-.758.769l.015,1.905a1.072,1.072,0,0,1-.725.98s-.389.117-.933.341a11.424,11.424,0,0,0-1.048.5,1.084,1.084,0,0,1-1.21-.165l-1.356-1.334a.764.764,0,0,0-1.078.008l-3.294,3.344a.768.768,0,0,0,.008,1.08l1.356,1.334a1.08,1.08,0,0,1,.184,1.208,11.308,11.308,0,0,0-.482,1.056c-.217.547-.325.937-.325.937a1.077,1.077,0,0,1-.969.74l-1.906.016a.765.765,0,0,0-.758.768l.036,4.694a.766.766,0,0,0,.769.758l1.913-.016a1.078,1.078,0,0,1,.98.726s.111.374.334.91a11.331,11.331,0,0,0,.515,1.077,1.079,1.079,0,0,1-.164,1.209l-1.352,1.373a.764.764,0,0,0,.008,1.079l3.345,3.294a.765.765,0,0,0,1.079-.009l1.362-1.384a1.091,1.091,0,0,1,1.211-.185,11.139,11.139,0,0,0,1.023.466c.548.217.938.326.938.326a1.078,1.078,0,0,1,.74.97l.014,1.929a.766.766,0,0,0,.771.757l4.693-.036a.764.764,0,0,0,.757-.769l-.015-1.934a1.08,1.08,0,0,1,.725-.982s.374-.111.909-.333a11.282,11.282,0,0,0,1.048-.5,1.083,1.083,0,0,1,1.211.164l1.38,1.358a.764.764,0,0,0,1.078-.008l3.293-3.344a.767.767,0,0,0-.008-1.081l-1.379-1.358a1.082,1.082,0,0,1-.185-1.208,11.051,11.051,0,0,0,.482-1.055c.216-.54.319-.913.319-.913a1.08,1.08,0,0,1,.971-.741l1.935-.016a.764.764,0,0,0,.757-.768l-.035-4.694a.767.767,0,0,0-.77-.757l-1.93.015a1.077,1.077,0,0,1-.979-.725s-.114-.39-.341-.933c-.243-.586-.481-1.018-.481-1.018a1.084,1.084,0,0,1,.166-1.211l1.341-1.361a.767.767,0,0,0-.01-1.08l-3.343-3.293a.767.767,0,0,0-1.08.008l-1.329,1.349a1.078,1.078,0,0,1-1.207.182,11.4,11.4,0,0,0-1.085-.5c-.539-.214-.914-.319-.914-.319a1.077,1.077,0,0,1-.74-.97l-.016-1.911a.766.766,0,0,0-.764-.758h0" transform="translate(-12152.643 -439.689)" fill="none"/>
    </clipPath>
    <linearGradient id="linear-gradient" x1="-12.945" y1="18.813" x2="-12.916" y2="18.813" gradientUnits="objectBoundingBox">
      <stop offset="0" stop-color="#1b2f80"/>
      <stop offset="0.678" stop-color="#076db1"/>
      <stop offset="1" stop-color="#0086c5"/>
    </linearGradient>
  </defs>
  <g id="icon-suministradora-potencia" transform="translate(-4734.389 1740.973)">
    <g id="Grupo_326" data-name="Grupo 326" transform="translate(4755.981 -1719.929)" clip-path="url(#clip-path)">
      <rect id="Rectángulo_218" data-name="Rectángulo 218" width="31.5" height="31.497" transform="translate(-0.003 0)" fill="url(#linear-gradient)"/>
    </g>
    <path id="Trazado_465" data-name="Trazado 465" d="M12130.362,454a36,36,0,1,0,36-36A36,36,0,0,0,12130.362,454Z" transform="translate(-7395.001 -2158)" fill="none" stroke="#2dbaff" stroke-miterlimit="10" stroke-width="1.945"/>
    <path id="Trazado_432" data-name="Trazado 432" d="M12171.119,455.732l4.189-6.756a.215.215,0,0,0-.339-.26l-5.426,5.812a1.858,1.858,0,0,0-1.726.826,1.864,1.864,0,1,0,3.3.378" transform="translate(-7397.771 -2160.286)" fill="#2aaaff"/>
    <path id="Trazado_434" data-name="Trazado 434" d="M12173.52,448.71l-2.6,2.6s-7.871-3.6-9.8,8.335a8.633,8.633,0,0,1,12.4-10.937" transform="translate(-7397.236 -2160.194)" fill="#2aaaff"/>
  </g>
</svg>
