<svg xmlns="http://www.w3.org/2000/svg" xmlns:xlink="http://www.w3.org/1999/xlink" width="73.945" height="73.946" viewBox="0 0 73.945 73.946">
  <defs>
    <clipPath id="clip-path">
      <path id="Trazado_440" data-name="Trazado 440" d="M12172.769,746.3a1.536,1.536,0,1,1,1.537,1.536,1.537,1.537,0,0,1-1.537-1.536m4.3,0a1.537,1.537,0,1,1,1.538,1.536,1.537,1.537,0,0,1-1.538-1.536m-4.3-4.1a.629.629,0,0,1,.63-.628h6.116a.628.628,0,0,1,0,1.257h-6.116a.629.629,0,0,1-.63-.628m0-2.115a.63.63,0,0,1,.63-.629h6.116a.629.629,0,0,1,0,1.258h-6.116a.629.629,0,0,1-.63-.628m0-2.115a.629.629,0,0,1,.63-.629h6.116a.628.628,0,0,1,0,1.257h-6.116a.629.629,0,0,1-.63-.627m0-2.116a.629.629,0,0,1,.63-.629h6.116a.628.628,0,0,1,0,1.257h-6.116a.629.629,0,0,1-.63-.627m-16.895,6.6V730.319a.991.991,0,0,1,.989-.99h10.607a.992.992,0,0,1,.991.99v12.139a.991.991,0,0,1-.991.989h-10.607a.99.99,0,0,1-.989-.989m.989-14.93a2.794,2.794,0,0,0-2.792,2.791v1.654a2.077,2.077,0,0,0-2.009,2.076v3.3h-1.179v-.619a.876.876,0,0,0-.877-.876h-.806a1.338,1.338,0,0,0-1.339,1.339v8.088a1.339,1.339,0,0,0,1.339,1.339h.806a.877.877,0,0,0,.877-.876v-.62h1.179v2.666a2.078,2.078,0,0,0,2.078,2.078h1.368v2.486a.877.877,0,0,0,.877.876h2.143a.876.876,0,0,0,.876-.876v-2.486h16.165v2.486a.877.877,0,0,0,.877.876h2.144a.876.876,0,0,0,.876-.876v-2.486h1.369a2.077,2.077,0,0,0,2.077-2.078V746.3h.632a1.462,1.462,0,0,0,1.463-1.462V737a1.463,1.463,0,0,0-1.463-1.463h-.632v-1.487a2.078,2.078,0,0,0-2.077-2.078h-.253v-.093a1.2,1.2,0,0,0-1.2-1.2h-.606v-.43a.681.681,0,0,0-.68-.68h-2.563a.68.68,0,0,0-.68.68v.43h-.606a1.2,1.2,0,0,0-1.2,1.2v.093h-2.778v-1.651a2.794,2.794,0,0,0-2.793-2.791Z" transform="translate(-12147.862 -727.528)" fill="none"/>
    </clipPath>
    <linearGradient id="linear-gradient" x1="-10.859" y1="12.691" x2="-10.834" y2="12.691" gradientUnits="objectBoundingBox">
      <stop offset="0" stop-color="#1b2f80"/>
      <stop offset="0.678" stop-color="#076db1"/>
      <stop offset="1" stop-color="#0086c5"/>
    </linearGradient>
  </defs>
  <g id="icon-suministradora-conexos" transform="translate(-4735.527 1461.472)">
    <path id="Trazado_468" data-name="Trazado 468" d="M12131.333,733.119a36,36,0,1,0,36-36A36,36,0,0,0,12131.333,733.119Z" transform="translate(-7394.833 -2157.618)" fill="none" stroke="#2dbaff" stroke-miterlimit="10" stroke-width="1.945"/>
    <g id="Grupo_341" data-name="Grupo 341" transform="translate(4753.62 -1437.827)">
      <g id="Grupo_332" data-name="Grupo 332" transform="translate(0 0)" clip-path="url(#clip-path)">
        <rect id="Rectángulo_225" data-name="Rectángulo 225" width="37.144" height="25.703" transform="translate(0 0)" fill="url(#linear-gradient)"/>
      </g>
      <path id="Trazado_439" data-name="Trazado 439" d="M12160.959,742.737l5.351-7.253h-3.572l3.019-4.467h-3.749l-2.2,6.1h2.9Z" transform="translate(-12148.754 -727.788)" fill="#2aaaff"/>
    </g>
  </g>
</svg>
