<svg xmlns="http://www.w3.org/2000/svg" width="73.945" height="73.944" viewBox="0 0 73.945 73.944">
  <g id="icon-generadora-conexos" transform="translate(-5335.037 1481.894)">
    <path id="Trazado_426" data-name="Trazado 426" d="M12760.958,717.737l5.352-7.253h-3.573l3.018-4.467h-3.747l-2.2,6.1h2.905Z" transform="translate(-7397.148 -2160.159)" fill="#fff"/>
    <path id="Trazado_427" data-name="Trazado 427" d="M12783.543,710.535h-.631v-1.487a2.077,2.077,0,0,0-2.078-2.078h-.252v-.1a1.2,1.2,0,0,0-1.2-1.2h-.605v-.43a.68.68,0,0,0-.68-.68h-2.564a.68.68,0,0,0-.68.68v.43h-.605a1.2,1.2,0,0,0-1.2,1.2v.1h-2.777v-1.652a2.8,2.8,0,0,0-2.793-2.792h-10.607a2.794,2.794,0,0,0-2.791,2.792v1.653a2.078,2.078,0,0,0-2.01,2.077v3.3h-1.18v-.62a.875.875,0,0,0-.875-.876h-.807a1.338,1.338,0,0,0-1.338,1.34v8.088a1.338,1.338,0,0,0,1.338,1.339h.807a.875.875,0,0,0,.875-.876v-.621h1.18v2.667a2.078,2.078,0,0,0,2.078,2.078h1.367v2.486a.877.877,0,0,0,.877.876h2.143a.877.877,0,0,0,.877-.876v-2.486h16.164v2.486a.877.877,0,0,0,.877.876h2.145a.876.876,0,0,0,.875-.876v-2.486h1.369a2.078,2.078,0,0,0,2.078-2.078V721.3h.631a1.462,1.462,0,0,0,1.463-1.462V712a1.463,1.463,0,0,0-1.463-1.463m-27.67-5.216a.992.992,0,0,1,.99-.99h10.607a.992.992,0,0,1,.99.99v12.139a.992.992,0,0,1-.99.989h-10.607a.992.992,0,0,1-.99-.989Zm18.432,17.521a1.536,1.536,0,1,1,1.535-1.536,1.534,1.534,0,0,1-1.535,1.536m4.3,0a1.536,1.536,0,1,1,1.537-1.536,1.536,1.536,0,0,1-1.537,1.536m.908-5.01h-6.117a.628.628,0,0,1,0-1.257h6.117a.628.628,0,1,1,0,1.257m0-2.115h-6.117a.629.629,0,0,1,0-1.258h6.117a.629.629,0,1,1,0,1.258m0-2.115h-6.117a.629.629,0,0,1,0-1.258h6.117a.629.629,0,1,1,0,1.258m0-2.116h-6.117a.628.628,0,0,1,0-1.257h6.117a.628.628,0,1,1,0,1.257" transform="translate(-7396.258 -2159.898)" fill="#fff"/>
    <path id="Trazado_456" data-name="Trazado 456" d="M12731.01,713.078a36,36,0,1,0,36-36A36,36,0,0,0,12731.01,713.078Z" transform="translate(-7395 -2158)" fill="none" stroke="#fff" stroke-miterlimit="10" stroke-width="1.945"/>
  </g>
</svg>
