<svg xmlns="http://www.w3.org/2000/svg" width="38" height="38" viewBox="0 0 38 38">
  <defs>
    <style>
      .cls-1 {
        fill: #fff;
      }
    </style>
  </defs>
  <path id="icon-whatsapp" class="cls-1" d="M32.308,7.772A18.836,18.836,0,0,0,2.672,30.5L0,40.25l9.983-2.621a18.773,18.773,0,0,0,9,2.29h.008A19.012,19.012,0,0,0,38,21.089,18.9,18.9,0,0,0,32.308,7.772ZM18.992,36.747a15.623,15.623,0,0,1-7.973-2.18l-.568-.339L4.529,35.78,6.107,30l-.373-.594a15.682,15.682,0,1,1,29.085-8.321A15.826,15.826,0,0,1,18.992,36.747Zm8.584-11.722c-.467-.237-2.782-1.374-3.215-1.527s-.746-.237-1.06.238-1.213,1.527-1.493,1.849-.551.356-1.018.119c-2.765-1.383-4.58-2.468-6.4-5.6-.483-.831.483-.772,1.383-2.57a.872.872,0,0,0-.042-.823c-.119-.237-1.06-2.553-1.45-3.495-.382-.916-.772-.789-1.06-.806-.271-.017-.585-.017-.9-.017a1.743,1.743,0,0,0-1.255.585,5.287,5.287,0,0,0-1.646,3.927,9.218,9.218,0,0,0,1.917,4.869c.237.314,3.317,5.064,8.041,7.108,2.986,1.289,4.156,1.4,5.649,1.179.908-.136,2.782-1.137,3.172-2.239a3.935,3.935,0,0,0,.271-2.239C28.356,25.372,28.042,25.254,27.575,25.025Z" transform="translate(0 -2.25)"/>
</svg>
