<svg xmlns="http://www.w3.org/2000/svg" width="40" height="40" viewBox="0 0 40 40">
  <defs>
    <style>
      .cls-1 {
        fill: #29aaff;
      }
    </style>
  </defs>
  <g id="icon-instagram" transform="translate(-233.885 -575.771)">
    <g id="Grupo_2169" data-name="Grupo 2169" transform="translate(233.885 575.771)">
      <path id="Trazado_1115" data-name="Trazado 1115" class="cls-1" d="M253.885,615.771a20,20,0,1,1,20-20A20.023,20.023,0,0,1,253.885,615.771Zm0-38.1a18.1,18.1,0,1,0,18.1,18.1A18.121,18.121,0,0,0,253.885,577.671Zm6.744,9.986a1.48,1.48,0,1,0,1.48,1.48A1.48,1.48,0,0,0,260.629,587.657Zm-6.579,1.9a6.217,6.217,0,1,0,6.217,6.217A6.225,6.225,0,0,0,254.05,589.554Zm0,10.2a3.982,3.982,0,1,1,3.982-3.982A3.987,3.987,0,0,1,254.05,599.754Zm12.544-9.149a7.583,7.583,0,0,0-7.583-7.583H249a7.583,7.583,0,0,0-7.583,7.583v10.009A7.583,7.583,0,0,0,249,608.2h10.008a7.583,7.583,0,0,0,7.583-7.583Zm-2.375,10.009a5.208,5.208,0,0,1-5.208,5.208H249a5.208,5.208,0,0,1-5.208-5.208V590.6A5.208,5.208,0,0,1,249,585.4h10.008a5.208,5.208,0,0,1,5.208,5.208Z" transform="translate(-233.885 -575.771)"/>
    </g>
  </g>
</svg>
