<svg xmlns="http://www.w3.org/2000/svg" width="40" height="40" viewBox="0 0 40 40">
  <defs>
    <style>
      .cls-1 {
        fill: #ffffff;
      }
    </style>
  </defs>
  <g id="icon-linkedin" transform="translate(-233.754 -483.702)">
    <g id="Grupo_2176" data-name="Grupo 2176" transform="translate(233.754 483.702)">
      <g id="Grupo_2174" data-name="Grupo 2174">
        <g id="Grupo_2171" data-name="Grupo 2171">
          <path id="Trazado_1116" data-name="Trazado 1116" class="cls-1" d="M253.754,523.7a20,20,0,1,1,20-20A20.023,20.023,0,0,1,253.754,523.7Zm0-37.848A17.848,17.848,0,1,0,271.6,503.7,17.868,17.868,0,0,0,253.754,485.855Z" transform="translate(-233.754 -483.702)"/>
        </g>
        <g id="Grupo_2173" data-name="Grupo 2173" transform="translate(10.476 15.401)">
          <g id="Grupo_2172" data-name="Grupo 2172">
            <path id="Trazado_1117" data-name="Trazado 1117" class="cls-1" d="M268.857,510.805v7.468a.334.334,0,0,1-.335.334h-3.855a.334.334,0,0,1-.334-.334v-6.945c0-1.828-.653-3.076-2.291-3.076a2.474,2.474,0,0,0-2.32,1.654,3.088,3.088,0,0,0-.15,1.1v7.264a.334.334,0,0,1-.335.334h-3.854a.333.333,0,0,1-.334-.334c.009-1.849.048-10.823.008-12.933a.332.332,0,0,1,.334-.338h3.846a.334.334,0,0,1,.334.334v1.594c-.009.015-.022.03-.03.045h.03v-.045a4.491,4.491,0,0,1,4.077-2.247c2.976,0,5.207,1.945,5.207,6.122Zm-20.5,7.8h3.855a.334.334,0,0,0,.334-.334V505.336a.334.334,0,0,0-.334-.334h-3.855a.334.334,0,0,0-.334.334v12.937A.334.334,0,0,0,248.359,518.607Z" transform="translate(-248.025 -504.683)"/>
          </g>
        </g>
      </g>
      <g id="Grupo_2175" data-name="Grupo 2175" transform="translate(10.18 9.147)">
        <circle id="Elipse_63" data-name="Elipse 63" class="cls-1" cx="2.421" cy="2.421" r="2.421"/>
      </g>
    </g>
  </g>
</svg>
