<svg xmlns="http://www.w3.org/2000/svg" width="67" height="67" viewBox="0 0 67 67">
  <defs>
    <style>
      .cls-1 {
        fill: #fff;
      }

      .cls-2 {
        fill: none;
        stroke: #fff;
        stroke-miterlimit: 10;
        stroke-width: 3px;
      }
    </style>
  </defs>
  <g id="icon-generadora-potencia" transform="translate(-5336.015 1583.001)">
    <g id="Grupo_344" data-name="Grupo 344" transform="translate(5352.745 -1566.286)">
      <path id="Trazado_422" data-name="Trazado 422" class="cls-1" d="M12771.319,618.259l4.457-7.187a.228.228,0,0,0-.36-.276l-5.771,6.18a1.983,1.983,0,1,0,1.675,1.282" transform="translate(-12752.829 -601.899)"/>
      <path id="Trazado_423" data-name="Trazado 423" class="cls-1" d="M12782.319,613.318l-2.051.016a1.142,1.142,0,0,1-1.041-.772s-.125-.413-.363-.991c-.261-.622-.512-1.083-.512-1.083a1.155,1.155,0,0,1,.178-1.289l1.422-1.449a.809.809,0,0,0-.011-1.148l-3.556-3.5a.813.813,0,0,0-1.146.009l-1.414,1.435a1.147,1.147,0,0,1-1.284.194,12.286,12.286,0,0,0-1.156-.533c-.576-.227-.977-.339-.977-.339a1.156,1.156,0,0,1-.789-1.031l-.014-2.034a.817.817,0,0,0-.82-.805l-4.988.038a.817.817,0,0,0-.808.818l.016,2.027a1.145,1.145,0,0,1-.771,1.043s-.413.122-.993.362a12.122,12.122,0,0,0-1.112.533,1.155,1.155,0,0,1-1.289-.178l-1.44-1.422a.814.814,0,0,0-1.148.009l-3.5,3.556a.816.816,0,0,0,.009,1.148l1.442,1.423a1.153,1.153,0,0,1,.194,1.285c-.188.365-.36.739-.512,1.121-.231.582-.348,1-.348,1a1.148,1.148,0,0,1-1.031.787l-2.025.016a.814.814,0,0,0-.807.819l.041,4.991a.812.812,0,0,0,.815.805l2.035-.016a1.143,1.143,0,0,1,1.042.771s.119.4.355.967a11.593,11.593,0,0,0,.548,1.145,1.154,1.154,0,0,1-.178,1.287l-1.438,1.459a.812.812,0,0,0,.009,1.148l3.557,3.5a.812.812,0,0,0,1.146-.009l1.451-1.472a1.155,1.155,0,0,1,1.286-.2,11.862,11.862,0,0,0,1.091.5c.581.23,1,.348,1,.348a1.147,1.147,0,0,1,.787,1.031l.015,2.051a.816.816,0,0,0,.819.805l4.993-.038a.814.814,0,0,0,.8-.818l-.016-2.057a1.152,1.152,0,0,1,.771-1.043s.4-.119.966-.356a11.984,11.984,0,0,0,1.114-.533,1.155,1.155,0,0,1,1.289.178l1.465,1.444a.815.815,0,0,0,1.148-.008l3.5-3.556a.816.816,0,0,0-.012-1.148l-1.464-1.444a1.153,1.153,0,0,1-.2-1.285,11.818,11.818,0,0,0,.512-1.123c.228-.573.341-.972.341-.972a1.15,1.15,0,0,1,1.032-.787l2.056-.016a.817.817,0,0,0,.809-.819l-.039-4.991a.816.816,0,0,0-.819-.805m-13.754,13.987a10.771,10.771,0,1,1,8.417-12.7,10.772,10.772,0,0,1-8.417,12.7" transform="translate(-12749.671 -599.996)"/>
      <path id="Trazado_424" data-name="Trazado 424" class="cls-1" d="M12772.847,610.621l-2.767,2.767s-8.372-3.822-10.423,8.866a9.183,9.183,0,0,1,13.189-11.633" transform="translate(-12751.298 -601.635)"/>
    </g>
    <path id="Trazado_455" data-name="Trazado 455" class="cls-2" d="M12730.7,616.039a32,32,0,1,0,32-32A32,32,0,0,0,12730.7,616.039Z" transform="translate(-7393.185 -2165.54)"/>
  </g>
</svg>
