<svg xmlns="http://www.w3.org/2000/svg" xmlns:xlink="http://www.w3.org/1999/xlink" width="67" height="67" viewBox="0 0 67 67">
  <defs>
    <style>
      .cls-1, .cls-2 {
        fill: none;
      }

      .cls-2 {
        stroke: #2dbaff;
        stroke-miterlimit: 10;
        stroke-width: 3px;
      }

      .cls-3 {
        clip-path: url(#clip-path);
      }

      .cls-4 {
        fill: url(#linear-gradient);
      }

      .cls-5 {
        fill: #2aaaff;
      }
    </style>
    <clipPath id="clip-path">
      <path id="Trazado_440" data-name="Trazado 440" class="cls-1" d="M12170.032,744.214a1.365,1.365,0,1,1,1.367,1.365,1.365,1.365,0,0,1-1.367-1.365m3.822,0a1.367,1.367,0,1,1,1.368,1.365,1.368,1.368,0,0,1-1.368-1.365m-3.823-3.644a.558.558,0,0,1,.56-.558h5.437a.559.559,0,1,1,0,1.117h-5.437a.558.558,0,0,1-.56-.558m0-1.88a.56.56,0,0,1,.56-.559h5.437a.559.559,0,1,1,0,1.118h-5.437a.558.558,0,0,1-.56-.558m0-1.88a.562.562,0,0,1,.561-.559h5.436a.559.559,0,1,1,0,1.117h-5.437a.559.559,0,0,1-.56-.557m0-1.881a.562.562,0,0,1,.561-.559h5.436a.559.559,0,1,1,0,1.117h-5.437a.559.559,0,0,1-.56-.557m-15.018,5.867v-10.79a.882.882,0,0,1,.88-.88h9.429a.882.882,0,0,1,.882.88V740.8a.881.881,0,0,1-.881.879h-9.429a.881.881,0,0,1-.881-.879m.881-13.271a2.484,2.484,0,0,0-2.483,2.481v1.47a1.846,1.846,0,0,0-1.784,1.845v2.933h-1.048v-.55a.778.778,0,0,0-.779-.779h-.717a1.189,1.189,0,0,0-1.19,1.19v7.189a1.19,1.19,0,0,0,1.189,1.19h.717a.779.779,0,0,0,.779-.779v-.551h1.048v2.37a1.847,1.847,0,0,0,1.847,1.847h1.217v2.21a.779.779,0,0,0,.779.779h1.9a.779.779,0,0,0,.779-.779v-2.21h14.368v2.21a.782.782,0,0,0,.78.779h1.905a.779.779,0,0,0,.778-.779v-2.21h1.217a1.847,1.847,0,0,0,1.847-1.847v-1.324h.562a1.3,1.3,0,0,0,1.3-1.3v-6.967a1.3,1.3,0,0,0-1.3-1.3h-.562v-1.322a1.847,1.847,0,0,0-1.847-1.847h-.225V731.4a1.067,1.067,0,0,0-1.066-1.067h-.539v-.382a.605.605,0,0,0-.6-.6h-2.278a.6.6,0,0,0-.6.6v.382h-.539a1.067,1.067,0,0,0-1.067,1.067v.083h-2.469v-1.468a2.481,2.481,0,0,0-2.482-2.481Z" transform="translate(-12147.893 -727.528)"/>
    </clipPath>
    <linearGradient id="linear-gradient" x1="-10.859" y1="12.691" x2="-10.834" y2="12.691" gradientUnits="objectBoundingBox">
      <stop offset="0" stop-color="#1b2f80"/>
      <stop offset="0.678" stop-color="#076db1"/>
      <stop offset="1" stop-color="#0086c5"/>
    </linearGradient>
  </defs>
  <g id="icon-suministradora-conexos" transform="translate(-4734.967 1461.999)">
    <path id="Trazado_468" data-name="Trazado 468" class="cls-2" d="M12131.3,729.119a32,32,0,1,0,32-32A32,32,0,0,0,12131.3,729.119Z" transform="translate(-7394.833 -2157.618)"/>
    <g id="Grupo_341" data-name="Grupo 341" transform="translate(4751.741 -1440.346)">
      <g id="Grupo_332" data-name="Grupo 332" class="cls-3" transform="translate(0 0)">
        <rect id="Rectángulo_225" data-name="Rectángulo 225" class="cls-4" width="33.017" height="22.847" transform="translate(-0.027 0)"/>
      </g>
      <path id="Trazado_439" data-name="Trazado 439" class="cls-5" d="M12160.873,741.435l4.756-6.447h-3.176l2.684-3.971h-3.334l-1.955,5.422h2.578Z" transform="translate(-12150.014 -728.147)"/>
    </g>
  </g>
</svg>
