<svg xmlns="http://www.w3.org/2000/svg" width="54.584" height="54.585" viewBox="0 0 54.584 54.585">
  <g id="icon-placeholder" transform="translate(-6473 -3240)">
    <path id="Trazado_4" data-name="Trazado 4" d="M6341,1530.4a27.293,27.293,0,1,1,27.292-27.293A27.323,27.323,0,0,1,6341,1530.4m0-51.653a24.361,24.361,0,1,0,24.361,24.36,24.388,24.388,0,0,0-24.361-24.36" transform="translate(159.292 1764.186)" fill="#fff"/>
    <path id="Trazado_7" data-name="Trazado 7" d="M6341.173,1489.814h-2.346a8.351,8.351,0,0,0-8.351,8.351c0,9.173,9.524,23.649,9.524,23.649s9.524-14.095,9.524-23.649a8.351,8.351,0,0,0-8.351-8.351m-1.173,11.81a3.048,3.048,0,1,1,3.048-3.048,3.048,3.048,0,0,1-3.048,3.048" transform="translate(159.524 1761.186)" fill="#fff"/>
  </g>
</svg>
