<svg xmlns="http://www.w3.org/2000/svg" width="34" height="34" viewBox="0 0 34 34">
  <g id="icon-in" transform="translate(-154 -171)">
    <g id="Elipse_2" data-name="Elipse 2" transform="translate(154 171)" fill="#383838" stroke="#383838" stroke-width="1">
      <circle cx="17" cy="17" r="17" stroke="none"/>
      <circle cx="17" cy="17" r="16.5" fill="none"/>
    </g>
    <path id="Icon_awesome-linkedin-in" data-name="Icon awesome-linkedin-in" d="M3.582,16H.264V5.318H3.582ZM1.921,3.861A1.93,1.93,0,1,1,3.842,1.922,1.937,1.937,0,0,1,1.921,3.861ZM16,16h-3.31V10.8c0-1.239-.025-2.829-1.725-2.829-1.725,0-1.989,1.346-1.989,2.739V16H5.659V5.318H8.841V6.775h.046A3.486,3.486,0,0,1,12.026,5.05C15.383,5.05,16,7.261,16,10.133V16Z" transform="translate(163 179.999)" fill="#fff"/>
  </g>
</svg>
