<svg xmlns="http://www.w3.org/2000/svg" width="67" height="67" viewBox="0 0 67 67">
  <defs>
    <style>
      .cls-1 {
        fill: none;
        stroke: #fff;
        stroke-miterlimit: 10;
        stroke-width: 3px;
      }

      .cls-2 {
        fill: #fff;
      }
    </style>
  </defs>
  <g id="icon-generadora-generadores" transform="translate(-5334.8 1389.382)">
    <path id="Trazado_457" data-name="Trazado 457" class="cls-1" d="M12731.3,802.118a32,32,0,1,0,32-32A32,32,0,0,0,12731.3,802.118Z" transform="translate(-7395 -2158)"/>
    <path id="Trazado_458" data-name="Trazado 458" class="cls-2" d="M12751.722,820.889a.453.453,0,0,0-.638-.075l-1.422,1.124a.455.455,0,0,0-.075.635l5.966,7.546a.454.454,0,0,0,.637.074l1.423-1.125a.451.451,0,0,0,.075-.636Zm29.229-3.92h0a2.27,2.27,0,0,0-3.181-.379l-6.413,5.025a1.814,1.814,0,0,1-1.116.386h-4.595a1.133,1.133,0,0,1,0-2.266h3.851a2.267,2.267,0,0,0-.006-4.533l-8.815.009h-.6a5.446,5.446,0,0,0-3.354,1.161l-3.146,2.471a.452.452,0,0,0-.076.637l6.112,7.733a.443.443,0,0,0,.351.172l7.394.062,2.044.017a5.439,5.439,0,0,0,3.417-1.172l7.762-6.134a2.269,2.269,0,0,0,.371-3.188" transform="translate(-7398.227 -2165.999)"/>
    <path id="Trazado_459" data-name="Trazado 459" class="cls-2" d="M12770.529,793.294a7.427,7.427,0,0,0-6.107,6.078,6.941,6.941,0,0,0,1.914,5.689,4.462,4.462,0,0,1,1.25,3.111,1.073,1.073,0,0,0,1.074,1.073h5.361a1.073,1.073,0,0,0,1.072-1.073,4.4,4.4,0,0,1,1.229-3.082,6.966,6.966,0,0,0-5.791-11.793m4.131,7.97-4.711,4.3a.323.323,0,0,1-.525-.341l1-3.01a.323.323,0,0,0-.307-.425h-1.885a.32.32,0,0,1-.3-.206.324.324,0,0,1,.082-.356l4.711-4.3a.322.322,0,0,1,.521.341l-1,3.011a.323.323,0,0,0,.307.425h1.885a.32.32,0,0,1,.3.206.325.325,0,0,1-.082.357" transform="translate(-7400.863 -2162.104)"/>
    <path id="Trazado_460" data-name="Trazado 460" class="cls-2" d="M12786.842,801.289h-3.672c.014.212.031.424.031.64s-.008.432-.021.639h3.662a.64.64,0,1,0,0-1.279" transform="translate(-7404.204 -2163.53)"/>
    <path id="Trazado_461" data-name="Trazado 461" class="cls-2" d="M12760.661,801.289h-3.673a.64.64,0,1,0,0,1.279h3.662c-.013-.207-.021-.42-.021-.639s.017-.428.032-.64" transform="translate(-7399.44 -2163.53)"/>
    <path id="Trazado_462" data-name="Trazado 462" class="cls-2" d="M12780.387,794.168l2.6-2.6a.64.64,0,1,0-.905-.9l-2.6,2.6a8.876,8.876,0,0,1,.9.9" transform="translate(-7403.546 -2161.613)"/>
    <path id="Trazado_463" data-name="Trazado 463" class="cls-2" d="M12772.841,790.313V786.64a.64.64,0,1,0-1.28,0v3.673c.214-.015.426-.033.642-.033s.428.017.64.033" transform="translate(-7402.144 -2160.818)"/>
    <path id="Trazado_464" data-name="Trazado 464" class="cls-2" d="M12764.441,793.266l-2.6-2.6a.641.641,0,0,0-.905.905l2.6,2.6a9.105,9.105,0,0,1,.905-.9" transform="translate(-7400.229 -2161.615)"/>
  </g>
</svg>
