<svg xmlns="http://www.w3.org/2000/svg" width="27.222" height="64" viewBox="0 0 27.222 64">
  <g id="Grupo_3" data-name="Grupo 3" transform="translate(-2873 -213.08)">
    <path id="Trazado_13" data-name="Trazado 13" d="M2898.247,214.186l-17.792,7.547a8.744,8.744,0,0,0-5.392,8.576,9.57,9.57,0,0,0,1.148,4.216,9.411,9.411,0,0,0,1.948,2.481,9.879,9.879,0,0,0,2.948,1.845l13.675,5.535h.005c4,1.623,6.815,4.461,7.021,6.85.019-.314.023-.632.012-.956a9.524,9.524,0,0,0-6.045-8.538L2882.1,236.2a6.726,6.726,0,0,1-2.2-1.424,6.532,6.532,0,0,1-1.575-2.454,6.75,6.75,0,0,1-.4-2.026,6.059,6.059,0,0,1,3.728-5.929L2899,217.014a8.238,8.238,0,0,1-4.966,8.4l-1.119.471L2880.851,231a2.944,2.944,0,0,0,3.795,1.536l10.58-4.488a10.92,10.92,0,0,0,6.183-6.882,11.451,11.451,0,0,0-.561-8.083Z" transform="translate(-1.673 0)" fill="#fff"/>
    <path id="Trazado_14" data-name="Trazado 14" d="M2876.648,390.82l17.792-7.544a8.744,8.744,0,0,0,5.391-8.576,9.569,9.569,0,0,0-1.148-4.216,9.408,9.408,0,0,0-1.948-2.481,9.877,9.877,0,0,0-2.948-1.845l-13.676-5.535h0c-4-1.623-6.815-4.461-7.021-6.849-.019.314-.024.632-.012.956a9.524,9.524,0,0,0,6.045,8.538l13.673,5.535a6.73,6.73,0,0,1,2.2,1.425,6.532,6.532,0,0,1,1.574,2.454,6.75,6.75,0,0,1,.4,2.026,6.059,6.059,0,0,1-3.728,5.929L2875.9,388a8.238,8.238,0,0,1,4.966-8.4l1.119-.471,12.062-5.116a2.944,2.944,0,0,0-3.8-1.536l-10.579,4.488a10.914,10.914,0,0,0-6.183,6.882,11.447,11.447,0,0,0,.561,8.083Z" transform="translate(0 -114.849)" fill="#fff"/>
  </g>
</svg>
