<svg xmlns="http://www.w3.org/2000/svg" width="178.343" height="80" viewBox="0 0 178.343 80">
  <defs>
    <style>
      .cls-1 {
        fill: #fff;
      }

      .cls-2 {
        fill: #fff;
      }

      .cls-3 {
        fill: #fff;
      }
    </style>
  </defs>
  <g id="Grupo_433" data-name="Grupo 433" transform="translate(-2873 -213)">
    <g id="Grupo_1" data-name="Grupo 1" transform="translate(2939.875 235.995)">
      <path id="Trazado_1" data-name="Trazado 1" class="cls-1" d="M3164.457,346.154l.568-3.268a53.269,53.269,0,0,0,9.806,1.042,15.5,15.5,0,0,0,3.316-.332,11.271,11.271,0,0,0,2.87-1.042,5.1,5.1,0,0,0,2.109-2.06,6.551,6.551,0,0,0,.758-3.246,8.722,8.722,0,0,0-.118-1.515,3.479,3.479,0,0,0-.45-1.207q-.332-.544-.616-.924a2.833,2.833,0,0,0-.972-.736q-.688-.355-1.16-.544a12.362,12.362,0,0,0-1.566-.441l-1.743-.408-2.043-.477a1.328,1.328,0,0,0-.284-.048q-6.3-1.421-8.432-3.246t-2.134-5.8a9.143,9.143,0,0,1,.9-4.216,6.513,6.513,0,0,1,2.582-2.722,12.065,12.065,0,0,1,3.766-1.374,25.8,25.8,0,0,1,4.833-.4,40.247,40.247,0,0,1,10.186,1.374l-.616,3.173a38.119,38.119,0,0,0-9.664-1.374,12.423,12.423,0,0,0-6.015,1.159,4.351,4.351,0,0,0-2.038,4.136,3.992,3.992,0,0,0,1.635,3.593q1.635,1.087,7.087,2.269l3,.707q1.123.263,2.424.692a8.987,8.987,0,0,1,2.035.9,11.628,11.628,0,0,1,1.489,1.166,4.289,4.289,0,0,1,1.112,1.571,10.545,10.545,0,0,1,.568,2.072,15.567,15.567,0,0,1,.213,2.713,10.212,10.212,0,0,1-.736,3.98,7.813,7.813,0,0,1-1.947,2.839,10.2,10.2,0,0,1-2.89,1.8,14.187,14.187,0,0,1-3.41.971,24.755,24.755,0,0,1-3.672.26A71.072,71.072,0,0,1,3164.457,346.154Z" transform="translate(-3164.361 -313.185)"/>
      <path id="Trazado_2" data-name="Trazado 2" class="cls-1" d="M3288.508,358.133l-.427-2.7a48.979,48.979,0,0,1,9.143-1.185q9.9,0,9.9,8.29V378.36h-2.935l-.19-2.134a25.791,25.791,0,0,1-10.042,2.558,9.783,9.783,0,0,1-3.98-.736,5.7,5.7,0,0,1-2.653-2.463,8.694,8.694,0,0,1-.994-4.382q0-3.884,2.558-5.592t8.433-1.706q2.557,0,5.968.332v-1.706q0-5.4-6.916-5.4A53.486,53.486,0,0,0,3288.508,358.133Zm14.78,15.443V366.47q-3.411-.331-5.778-.331a21.365,21.365,0,0,0-3.842.287,4.91,4.91,0,0,0-2.3.947,3.42,3.42,0,0,0-1.067,1.492,6.829,6.829,0,0,0-.284,2.156q0,4.88,4.782,4.88A21.4,21.4,0,0,0,3303.288,373.576Z" transform="translate(-3258.331 -344.823)"/>
      <path id="Trazado_3" data-name="Trazado 3" class="cls-1" d="M3403.872,358.133l-.428-2.7a49,49,0,0,1,9.145-1.185q9.9,0,9.9,8.29V378.36h-2.937l-.19-2.134a25.8,25.8,0,0,1-10.043,2.558,9.784,9.784,0,0,1-3.98-.736,5.7,5.7,0,0,1-2.653-2.463,8.694,8.694,0,0,1-.994-4.382q0-3.884,2.559-5.592t8.432-1.706q2.559,0,5.969.332v-1.706q0-5.4-6.916-5.4A53.513,53.513,0,0,0,3403.872,358.133Zm14.78,15.443V366.47q-3.412-.331-5.779-.331a21.355,21.355,0,0,0-3.837.284,4.909,4.909,0,0,0-2.3.947,3.425,3.425,0,0,0-1.065,1.492,6.782,6.782,0,0,0-.285,2.156q0,4.88,4.782,4.879A21.355,21.355,0,0,0,3418.651,373.576Z" transform="translate(-3347.213 -344.823)"/>
      <path id="Trazado_4" data-name="Trazado 4" class="cls-1" d="M3523.453,379.793h-4.736l-9.475-23.686h3.933l7.907,20.535,7.867-20.535h3.934Z" transform="translate(-3430.082 -346.255)"/>
      <path id="Trazado_5" data-name="Trazado 5" class="cls-1" d="M3636.483,320.754h-4.027v-4.876h4.027Zm-.1,28.045h-3.837V325.112h3.837Z" transform="translate(-3525.016 -315.26)"/>
    </g>
    <g id="Grupo_2" data-name="Grupo 2" transform="translate(2967.873 276.31)">
      <path id="Trazado_6" data-name="Trazado 6" class="cls-2" d="M3291.167,493.7h-3.635v2.01h4.285v1.059h-5.477V489.55h5.477v1.06h-4.285v2.082h3.635Z" transform="translate(-3286.34 -489.384)"/>
      <path id="Trazado_7" data-name="Trazado 7" class="cls-2" d="M3348.943,496.772h-.313l-5-4.839v4.839h-1.192V489.55h.313l5,4.766V489.55h1.192Z" transform="translate(-3329.566 -489.384)"/>
      <path id="Trazado_8" data-name="Trazado 8" class="cls-2" d="M3409.976,493.7h-3.635v2.01h4.285v1.059h-5.477V489.55h5.477v1.06h-4.285v2.082h3.635Z" transform="translate(-3377.879 -489.384)"/>
      <path id="Trazado_9" data-name="Trazado 9" class="cls-2" d="M3461.262,489.55h3.129c1.817,0,2.925.878,2.925,2.444a2.261,2.261,0,0,1-1.5,2.239v.074l1.793,2.3v.168h-1.324l-1.766-2.287h-2.06v2.287h-1.192Zm3.09,1.06h-1.9v2.841h1.976c1,0,1.661-.446,1.661-1.408s-.675-1.432-1.734-1.432Z" transform="translate(-3421.113 -489.384)"/>
      <path id="Trazado_10" data-name="Trazado 10" class="cls-2" d="M3524.344,493.146H3522v-1.011h3.587v.614c0,2.167-1.215,3.635-3.406,3.635a3.774,3.774,0,0,1-.079-7.547h.1a3.678,3.678,0,0,1,2.7.926l-.709.914a3.028,3.028,0,0,0-2-.71,2.506,2.506,0,0,0-2.566,2.445c0,.068,0,.136,0,.2a2.467,2.467,0,0,0,2.3,2.62c.078.005.157.006.236,0a2.019,2.019,0,0,0,2.173-1.851,2.067,2.067,0,0,0,.006-.209Z" transform="translate(-3465.111 -488.828)"/>
      <path id="Trazado_11" data-name="Trazado 11" class="cls-2" d="M3583.133,496.772h-1.192V489.55h1.192Z" transform="translate(-3514.093 -489.384)"/>
      <path id="Trazado_12" data-name="Trazado 12" class="cls-2" d="M3620.859,489.55h.229l3.659,7.222h-1.361l-.542-1.1H3619.1l-.53,1.1h-1.348Zm.157,2.2h-.074l-1.3,2.829-.073.121h2.8l-.073-.121Z" transform="translate(-3541.277 -489.384)"/>
    </g>
    <rect id="Rectángulo_2" data-name="Rectángulo 2" class="cls-1" width="1.65" height="80" transform="translate(2926.475 213)"/>
    <g id="Grupo_3" data-name="Grupo 3" transform="translate(2873 213.018)">
      <path id="Trazado_13" data-name="Trazado 13" class="cls-2" d="M2904.034,214.462l-22.231,9.429a10.925,10.925,0,0,0-6.737,10.715,11.959,11.959,0,0,0,1.435,5.267,11.761,11.761,0,0,0,2.434,3.1,12.341,12.341,0,0,0,3.683,2.3l17.086,6.916h.007c5,2.028,8.516,5.574,8.773,8.558.023-.393.029-.79.015-1.195a11.9,11.9,0,0,0-7.553-10.668l-17.084-6.916a8.411,8.411,0,0,1-2.754-1.78,8.164,8.164,0,0,1-1.967-3.067,8.428,8.428,0,0,1-.5-2.531,7.57,7.57,0,0,1,4.657-7.408l21.674-9.193a10.293,10.293,0,0,1-6.2,10.492l-1.4.589-15.071,6.392a3.679,3.679,0,0,0,4.742,1.919l13.219-5.607a13.644,13.644,0,0,0,7.725-8.6,14.307,14.307,0,0,0-.7-10.1Z" transform="translate(-2874.579 -213.08)"/>
      <path id="Trazado_14" data-name="Trazado 14" class="cls-3" d="M2877.558,400.062l22.231-9.426a10.925,10.925,0,0,0,6.736-10.716,11.958,11.958,0,0,0-1.435-5.267,11.762,11.762,0,0,0-2.434-3.1,12.344,12.344,0,0,0-3.683-2.305l-17.087-6.916h-.006c-5-2.028-8.516-5.574-8.773-8.558-.023.393-.029.79-.015,1.195a11.9,11.9,0,0,0,7.553,10.668l17.084,6.916a8.411,8.411,0,0,1,2.754,1.78,8.162,8.162,0,0,1,1.967,3.066,8.437,8.437,0,0,1,.5,2.531,7.57,7.57,0,0,1-4.657,7.408l-21.674,9.193a10.293,10.293,0,0,1,6.2-10.492l1.4-.589,15.071-6.392a3.679,3.679,0,0,0-4.742-1.919l-13.219,5.607a13.638,13.638,0,0,0-7.725,8.6,14.3,14.3,0,0,0,.7,10.1Z" transform="translate(-2873 -321.481)"/>
    </g>
  </g>
</svg>
